<mxfile host="Electron" modified="2021-04-26T04:27:01.899Z" agent="5.0 (Macintosh; Intel Mac OS X 11_2_3) AppleWebKit/537.36 (KHTML, like Gecko) draw.io/14.5.1 Chrome/89.0.4389.82 Electron/12.0.1 Safari/537.36" etag="JLxK70SCzccn0gC1hXxS" compressed="false" version="14.5.1" type="device">
  <diagram id="IfdVSSSdl95hmzK6VHdX" name="Page-1">
    <mxGraphModel dx="2431" dy="1426" grid="0" gridSize="10" guides="0" tooltips="1" connect="1" arrows="1" fold="1" page="1" pageScale="1" pageWidth="204800" pageHeight="204800" math="0" shadow="0">
      <root>
        <mxCell id="0" />
        <mxCell id="1" parent="0" />
        <mxCell id="at9RbOZ54mhqnbz547Yu-18" value="" style="group" parent="1" vertex="1" connectable="0">
          <mxGeometry x="98" y="81" width="19" height="55" as="geometry" />
        </mxCell>
        <mxCell id="at9RbOZ54mhqnbz547Yu-4" value="" style="ellipse;whiteSpace=wrap;html=1;sketch=1;strokeColor=#000000;fillColor=none;aspect=fixed;" parent="at9RbOZ54mhqnbz547Yu-18" vertex="1">
          <mxGeometry width="15" height="15" as="geometry" />
        </mxCell>
        <mxCell id="at9RbOZ54mhqnbz547Yu-7" value="" style="endArrow=none;html=1;sketch=1;entryX=0.5;entryY=1;entryDx=0;entryDy=0;" parent="at9RbOZ54mhqnbz547Yu-18" target="at9RbOZ54mhqnbz547Yu-4" edge="1">
          <mxGeometry width="50" height="50" relative="1" as="geometry">
            <mxPoint x="8" y="20" as="sourcePoint" />
            <mxPoint x="50" y="60" as="targetPoint" />
          </mxGeometry>
        </mxCell>
        <mxCell id="at9RbOZ54mhqnbz547Yu-8" value="" style="endArrow=none;html=1;sketch=1;" parent="at9RbOZ54mhqnbz547Yu-18" edge="1">
          <mxGeometry width="50" height="50" relative="1" as="geometry">
            <mxPoint x="8" y="36" as="sourcePoint" />
            <mxPoint x="8" y="20" as="targetPoint" />
          </mxGeometry>
        </mxCell>
        <mxCell id="at9RbOZ54mhqnbz547Yu-9" value="" style="endArrow=none;html=1;sketch=1;" parent="at9RbOZ54mhqnbz547Yu-18" edge="1">
          <mxGeometry width="50" height="50" relative="1" as="geometry">
            <mxPoint x="15" y="46" as="sourcePoint" />
            <mxPoint x="8" y="37" as="targetPoint" />
          </mxGeometry>
        </mxCell>
        <mxCell id="at9RbOZ54mhqnbz547Yu-11" value="" style="endArrow=none;html=1;sketch=1;" parent="at9RbOZ54mhqnbz547Yu-18" edge="1">
          <mxGeometry width="50" height="50" relative="1" as="geometry">
            <mxPoint x="4" y="46" as="sourcePoint" />
            <mxPoint x="7" y="37" as="targetPoint" />
          </mxGeometry>
        </mxCell>
        <mxCell id="at9RbOZ54mhqnbz547Yu-12" value="" style="endArrow=none;html=1;sketch=1;" parent="at9RbOZ54mhqnbz547Yu-18" edge="1">
          <mxGeometry width="50" height="50" relative="1" as="geometry">
            <mxPoint x="14" y="26" as="sourcePoint" />
            <mxPoint x="9" y="20" as="targetPoint" />
          </mxGeometry>
        </mxCell>
        <mxCell id="at9RbOZ54mhqnbz547Yu-13" value="" style="endArrow=none;html=1;sketch=1;" parent="at9RbOZ54mhqnbz547Yu-18" edge="1">
          <mxGeometry width="50" height="50" relative="1" as="geometry">
            <mxPoint x="3" y="27" as="sourcePoint" />
            <mxPoint x="8" y="21" as="targetPoint" />
          </mxGeometry>
        </mxCell>
        <mxCell id="at9RbOZ54mhqnbz547Yu-14" value="" style="endArrow=none;html=1;sketch=1;" parent="at9RbOZ54mhqnbz547Yu-18" edge="1">
          <mxGeometry width="50" height="50" relative="1" as="geometry">
            <mxPoint x="1" y="55" as="sourcePoint" />
            <mxPoint x="4" y="46" as="targetPoint" />
          </mxGeometry>
        </mxCell>
        <mxCell id="at9RbOZ54mhqnbz547Yu-15" value="" style="endArrow=none;html=1;sketch=1;" parent="at9RbOZ54mhqnbz547Yu-18" edge="1">
          <mxGeometry width="50" height="50" relative="1" as="geometry">
            <mxPoint x="18" y="55" as="sourcePoint" />
            <mxPoint x="15" y="46" as="targetPoint" />
          </mxGeometry>
        </mxCell>
        <mxCell id="at9RbOZ54mhqnbz547Yu-16" value="" style="endArrow=none;html=1;sketch=1;" parent="at9RbOZ54mhqnbz547Yu-18" edge="1">
          <mxGeometry width="50" height="50" relative="1" as="geometry">
            <mxPoint x="19" y="32" as="sourcePoint" />
            <mxPoint x="14" y="26" as="targetPoint" />
          </mxGeometry>
        </mxCell>
        <mxCell id="at9RbOZ54mhqnbz547Yu-17" value="" style="endArrow=none;html=1;sketch=1;" parent="at9RbOZ54mhqnbz547Yu-18" edge="1">
          <mxGeometry width="50" height="50" relative="1" as="geometry">
            <mxPoint x="1" y="34" as="sourcePoint" />
            <mxPoint x="3" y="27" as="targetPoint" />
          </mxGeometry>
        </mxCell>
        <mxCell id="at9RbOZ54mhqnbz547Yu-20" value="" style="group" parent="1" vertex="1" connectable="0">
          <mxGeometry x="47" y="10" width="19" height="55" as="geometry" />
        </mxCell>
        <mxCell id="at9RbOZ54mhqnbz547Yu-21" value="" style="ellipse;whiteSpace=wrap;html=1;sketch=1;strokeColor=#000000;fillColor=none;aspect=fixed;" parent="at9RbOZ54mhqnbz547Yu-20" vertex="1">
          <mxGeometry width="15" height="15" as="geometry" />
        </mxCell>
        <mxCell id="at9RbOZ54mhqnbz547Yu-22" value="" style="endArrow=none;html=1;sketch=1;entryX=0.5;entryY=1;entryDx=0;entryDy=0;" parent="at9RbOZ54mhqnbz547Yu-20" target="at9RbOZ54mhqnbz547Yu-21" edge="1">
          <mxGeometry width="50" height="50" relative="1" as="geometry">
            <mxPoint x="8" y="20" as="sourcePoint" />
            <mxPoint x="50" y="60" as="targetPoint" />
          </mxGeometry>
        </mxCell>
        <mxCell id="at9RbOZ54mhqnbz547Yu-23" value="" style="endArrow=none;html=1;sketch=1;" parent="at9RbOZ54mhqnbz547Yu-20" edge="1">
          <mxGeometry width="50" height="50" relative="1" as="geometry">
            <mxPoint x="8" y="36" as="sourcePoint" />
            <mxPoint x="8" y="20" as="targetPoint" />
          </mxGeometry>
        </mxCell>
        <mxCell id="at9RbOZ54mhqnbz547Yu-24" value="" style="endArrow=none;html=1;sketch=1;" parent="at9RbOZ54mhqnbz547Yu-20" edge="1">
          <mxGeometry width="50" height="50" relative="1" as="geometry">
            <mxPoint x="13" y="47" as="sourcePoint" />
            <mxPoint x="8" y="37" as="targetPoint" />
          </mxGeometry>
        </mxCell>
        <mxCell id="at9RbOZ54mhqnbz547Yu-25" value="" style="endArrow=none;html=1;sketch=1;" parent="at9RbOZ54mhqnbz547Yu-20" edge="1">
          <mxGeometry width="50" height="50" relative="1" as="geometry">
            <mxPoint x="8" y="45" as="sourcePoint" />
            <mxPoint x="7" y="37" as="targetPoint" />
          </mxGeometry>
        </mxCell>
        <mxCell id="at9RbOZ54mhqnbz547Yu-26" value="" style="endArrow=none;html=1;sketch=1;" parent="at9RbOZ54mhqnbz547Yu-20" edge="1">
          <mxGeometry width="50" height="50" relative="1" as="geometry">
            <mxPoint x="12" y="27" as="sourcePoint" />
            <mxPoint x="9" y="20" as="targetPoint" />
          </mxGeometry>
        </mxCell>
        <mxCell id="at9RbOZ54mhqnbz547Yu-27" value="" style="endArrow=none;html=1;sketch=1;" parent="at9RbOZ54mhqnbz547Yu-20" edge="1">
          <mxGeometry width="50" height="50" relative="1" as="geometry">
            <mxPoint x="6" y="29" as="sourcePoint" />
            <mxPoint x="8" y="21" as="targetPoint" />
          </mxGeometry>
        </mxCell>
        <mxCell id="at9RbOZ54mhqnbz547Yu-28" value="" style="endArrow=none;html=1;sketch=1;" parent="at9RbOZ54mhqnbz547Yu-20" edge="1">
          <mxGeometry width="50" height="50" relative="1" as="geometry">
            <mxPoint x="3" y="51" as="sourcePoint" />
            <mxPoint x="8" y="45" as="targetPoint" />
          </mxGeometry>
        </mxCell>
        <mxCell id="at9RbOZ54mhqnbz547Yu-29" value="" style="endArrow=none;html=1;sketch=1;" parent="at9RbOZ54mhqnbz547Yu-20" edge="1">
          <mxGeometry width="50" height="50" relative="1" as="geometry">
            <mxPoint x="16" y="56" as="sourcePoint" />
            <mxPoint x="13" y="47" as="targetPoint" />
            <Array as="points">
              <mxPoint x="13" y="47" />
            </Array>
          </mxGeometry>
        </mxCell>
        <mxCell id="at9RbOZ54mhqnbz547Yu-30" value="" style="endArrow=none;html=1;sketch=1;" parent="at9RbOZ54mhqnbz547Yu-20" edge="1">
          <mxGeometry width="50" height="50" relative="1" as="geometry">
            <mxPoint x="13" y="34" as="sourcePoint" />
            <mxPoint x="11" y="27" as="targetPoint" />
          </mxGeometry>
        </mxCell>
        <mxCell id="at9RbOZ54mhqnbz547Yu-31" value="" style="endArrow=none;html=1;sketch=1;" parent="at9RbOZ54mhqnbz547Yu-20" edge="1">
          <mxGeometry width="50" height="50" relative="1" as="geometry">
            <mxPoint x="6" y="36" as="sourcePoint" />
            <mxPoint x="6" y="29" as="targetPoint" />
          </mxGeometry>
        </mxCell>
        <mxCell id="at9RbOZ54mhqnbz547Yu-33" value="" style="group" parent="1" vertex="1" connectable="0">
          <mxGeometry x="77" y="10" width="19" height="55" as="geometry" />
        </mxCell>
        <mxCell id="at9RbOZ54mhqnbz547Yu-34" value="" style="ellipse;whiteSpace=wrap;html=1;sketch=1;strokeColor=#000000;fillColor=none;aspect=fixed;" parent="at9RbOZ54mhqnbz547Yu-33" vertex="1">
          <mxGeometry width="15" height="15" as="geometry" />
        </mxCell>
        <mxCell id="at9RbOZ54mhqnbz547Yu-35" value="" style="endArrow=none;html=1;sketch=1;entryX=0.5;entryY=1;entryDx=0;entryDy=0;" parent="at9RbOZ54mhqnbz547Yu-33" target="at9RbOZ54mhqnbz547Yu-34" edge="1">
          <mxGeometry width="50" height="50" relative="1" as="geometry">
            <mxPoint x="8" y="20" as="sourcePoint" />
            <mxPoint x="50" y="60" as="targetPoint" />
          </mxGeometry>
        </mxCell>
        <mxCell id="at9RbOZ54mhqnbz547Yu-36" value="" style="endArrow=none;html=1;sketch=1;" parent="at9RbOZ54mhqnbz547Yu-33" edge="1">
          <mxGeometry width="50" height="50" relative="1" as="geometry">
            <mxPoint x="8" y="36" as="sourcePoint" />
            <mxPoint x="8" y="20" as="targetPoint" />
          </mxGeometry>
        </mxCell>
        <mxCell id="at9RbOZ54mhqnbz547Yu-37" value="" style="endArrow=none;html=1;sketch=1;" parent="at9RbOZ54mhqnbz547Yu-33" edge="1">
          <mxGeometry width="50" height="50" relative="1" as="geometry">
            <mxPoint x="8" y="47" as="sourcePoint" />
            <mxPoint x="8" y="37" as="targetPoint" />
          </mxGeometry>
        </mxCell>
        <mxCell id="at9RbOZ54mhqnbz547Yu-38" value="" style="endArrow=none;html=1;sketch=1;" parent="at9RbOZ54mhqnbz547Yu-33" edge="1">
          <mxGeometry width="50" height="50" relative="1" as="geometry">
            <mxPoint x="13" y="43" as="sourcePoint" />
            <mxPoint x="7" y="37" as="targetPoint" />
          </mxGeometry>
        </mxCell>
        <mxCell id="at9RbOZ54mhqnbz547Yu-39" value="" style="endArrow=none;html=1;sketch=1;" parent="at9RbOZ54mhqnbz547Yu-33" edge="1">
          <mxGeometry width="50" height="50" relative="1" as="geometry">
            <mxPoint x="14" y="26" as="sourcePoint" />
            <mxPoint x="9" y="20" as="targetPoint" />
          </mxGeometry>
        </mxCell>
        <mxCell id="at9RbOZ54mhqnbz547Yu-40" value="" style="endArrow=none;html=1;sketch=1;" parent="at9RbOZ54mhqnbz547Yu-33" edge="1">
          <mxGeometry width="50" height="50" relative="1" as="geometry">
            <mxPoint x="3" y="27" as="sourcePoint" />
            <mxPoint x="8" y="21" as="targetPoint" />
          </mxGeometry>
        </mxCell>
        <mxCell id="at9RbOZ54mhqnbz547Yu-41" value="" style="endArrow=none;html=1;sketch=1;" parent="at9RbOZ54mhqnbz547Yu-33" edge="1">
          <mxGeometry width="50" height="50" relative="1" as="geometry">
            <mxPoint x="8" y="50" as="sourcePoint" />
            <mxPoint x="13" y="44" as="targetPoint" />
          </mxGeometry>
        </mxCell>
        <mxCell id="at9RbOZ54mhqnbz547Yu-42" value="" style="endArrow=none;html=1;sketch=1;" parent="at9RbOZ54mhqnbz547Yu-33" edge="1">
          <mxGeometry width="50" height="50" relative="1" as="geometry">
            <mxPoint x="7" y="55" as="sourcePoint" />
            <mxPoint x="8" y="47" as="targetPoint" />
            <Array as="points">
              <mxPoint x="8" y="47" />
            </Array>
          </mxGeometry>
        </mxCell>
        <mxCell id="at9RbOZ54mhqnbz547Yu-43" value="" style="endArrow=none;html=1;sketch=1;" parent="at9RbOZ54mhqnbz547Yu-33" edge="1">
          <mxGeometry width="50" height="50" relative="1" as="geometry">
            <mxPoint x="19" y="32" as="sourcePoint" />
            <mxPoint x="14" y="26" as="targetPoint" />
          </mxGeometry>
        </mxCell>
        <mxCell id="at9RbOZ54mhqnbz547Yu-44" value="" style="endArrow=none;html=1;sketch=1;" parent="at9RbOZ54mhqnbz547Yu-33" edge="1">
          <mxGeometry width="50" height="50" relative="1" as="geometry">
            <mxPoint x="1" y="34" as="sourcePoint" />
            <mxPoint x="3" y="27" as="targetPoint" />
          </mxGeometry>
        </mxCell>
        <mxCell id="at9RbOZ54mhqnbz547Yu-46" value="" style="group" parent="1" vertex="1" connectable="0">
          <mxGeometry x="107" y="10" width="19" height="55" as="geometry" />
        </mxCell>
        <mxCell id="at9RbOZ54mhqnbz547Yu-47" value="" style="ellipse;whiteSpace=wrap;html=1;sketch=1;strokeColor=#000000;fillColor=none;aspect=fixed;" parent="at9RbOZ54mhqnbz547Yu-46" vertex="1">
          <mxGeometry width="15" height="15" as="geometry" />
        </mxCell>
        <mxCell id="at9RbOZ54mhqnbz547Yu-48" value="" style="endArrow=none;html=1;sketch=1;entryX=0.5;entryY=1;entryDx=0;entryDy=0;" parent="at9RbOZ54mhqnbz547Yu-46" target="at9RbOZ54mhqnbz547Yu-47" edge="1">
          <mxGeometry width="50" height="50" relative="1" as="geometry">
            <mxPoint x="8" y="20" as="sourcePoint" />
            <mxPoint x="50" y="60" as="targetPoint" />
          </mxGeometry>
        </mxCell>
        <mxCell id="at9RbOZ54mhqnbz547Yu-49" value="" style="endArrow=none;html=1;sketch=1;" parent="at9RbOZ54mhqnbz547Yu-46" edge="1">
          <mxGeometry width="50" height="50" relative="1" as="geometry">
            <mxPoint x="8" y="36" as="sourcePoint" />
            <mxPoint x="8" y="20" as="targetPoint" />
          </mxGeometry>
        </mxCell>
        <mxCell id="at9RbOZ54mhqnbz547Yu-50" value="" style="endArrow=none;html=1;sketch=1;" parent="at9RbOZ54mhqnbz547Yu-46" edge="1">
          <mxGeometry width="50" height="50" relative="1" as="geometry">
            <mxPoint x="6" y="47" as="sourcePoint" />
            <mxPoint x="8" y="37" as="targetPoint" />
          </mxGeometry>
        </mxCell>
        <mxCell id="at9RbOZ54mhqnbz547Yu-51" value="" style="endArrow=none;html=1;sketch=1;" parent="at9RbOZ54mhqnbz547Yu-46" edge="1">
          <mxGeometry width="50" height="50" relative="1" as="geometry">
            <mxPoint x="13" y="43" as="sourcePoint" />
            <mxPoint x="7" y="37" as="targetPoint" />
          </mxGeometry>
        </mxCell>
        <mxCell id="at9RbOZ54mhqnbz547Yu-52" value="" style="endArrow=none;html=1;sketch=1;" parent="at9RbOZ54mhqnbz547Yu-46" edge="1">
          <mxGeometry width="50" height="50" relative="1" as="geometry">
            <mxPoint x="12" y="27" as="sourcePoint" />
            <mxPoint x="9" y="20" as="targetPoint" />
          </mxGeometry>
        </mxCell>
        <mxCell id="at9RbOZ54mhqnbz547Yu-53" value="" style="endArrow=none;html=1;sketch=1;" parent="at9RbOZ54mhqnbz547Yu-46" edge="1">
          <mxGeometry width="50" height="50" relative="1" as="geometry">
            <mxPoint x="6" y="28" as="sourcePoint" />
            <mxPoint x="8" y="21" as="targetPoint" />
          </mxGeometry>
        </mxCell>
        <mxCell id="at9RbOZ54mhqnbz547Yu-54" value="" style="endArrow=none;html=1;sketch=1;" parent="at9RbOZ54mhqnbz547Yu-46" edge="1">
          <mxGeometry width="50" height="50" relative="1" as="geometry">
            <mxPoint x="16" y="54" as="sourcePoint" />
            <mxPoint x="13" y="44" as="targetPoint" />
          </mxGeometry>
        </mxCell>
        <mxCell id="at9RbOZ54mhqnbz547Yu-55" value="" style="endArrow=none;html=1;sketch=1;" parent="at9RbOZ54mhqnbz547Yu-46" edge="1">
          <mxGeometry width="50" height="50" relative="1" as="geometry">
            <mxPoint x="2" y="54" as="sourcePoint" />
            <mxPoint x="6" y="47" as="targetPoint" />
            <Array as="points" />
          </mxGeometry>
        </mxCell>
        <mxCell id="at9RbOZ54mhqnbz547Yu-56" value="" style="endArrow=none;html=1;sketch=1;" parent="at9RbOZ54mhqnbz547Yu-46" edge="1">
          <mxGeometry width="50" height="50" relative="1" as="geometry">
            <mxPoint x="19" y="32" as="sourcePoint" />
            <mxPoint x="12" y="27" as="targetPoint" />
          </mxGeometry>
        </mxCell>
        <mxCell id="at9RbOZ54mhqnbz547Yu-57" value="" style="endArrow=none;html=1;sketch=1;" parent="at9RbOZ54mhqnbz547Yu-46" edge="1">
          <mxGeometry width="50" height="50" relative="1" as="geometry">
            <mxPoint x="6" y="34" as="sourcePoint" />
            <mxPoint x="5" y="28" as="targetPoint" />
          </mxGeometry>
        </mxCell>
        <mxCell id="at9RbOZ54mhqnbz547Yu-59" value="" style="group" parent="1" vertex="1" connectable="0">
          <mxGeometry x="12" y="80" width="19" height="55" as="geometry" />
        </mxCell>
        <mxCell id="at9RbOZ54mhqnbz547Yu-60" value="" style="ellipse;whiteSpace=wrap;html=1;sketch=1;strokeColor=#000000;fillColor=none;aspect=fixed;" parent="at9RbOZ54mhqnbz547Yu-59" vertex="1">
          <mxGeometry width="15" height="15" as="geometry" />
        </mxCell>
        <mxCell id="at9RbOZ54mhqnbz547Yu-61" value="" style="endArrow=none;html=1;sketch=1;entryX=0.5;entryY=1;entryDx=0;entryDy=0;" parent="at9RbOZ54mhqnbz547Yu-59" target="at9RbOZ54mhqnbz547Yu-60" edge="1">
          <mxGeometry width="50" height="50" relative="1" as="geometry">
            <mxPoint x="8" y="20" as="sourcePoint" />
            <mxPoint x="50" y="60" as="targetPoint" />
          </mxGeometry>
        </mxCell>
        <mxCell id="at9RbOZ54mhqnbz547Yu-62" value="" style="endArrow=none;html=1;sketch=1;" parent="at9RbOZ54mhqnbz547Yu-59" edge="1">
          <mxGeometry width="50" height="50" relative="1" as="geometry">
            <mxPoint x="8" y="36" as="sourcePoint" />
            <mxPoint x="8" y="20" as="targetPoint" />
          </mxGeometry>
        </mxCell>
        <mxCell id="at9RbOZ54mhqnbz547Yu-63" value="" style="endArrow=none;html=1;sketch=1;" parent="at9RbOZ54mhqnbz547Yu-59" edge="1">
          <mxGeometry width="50" height="50" relative="1" as="geometry">
            <mxPoint x="15" y="46" as="sourcePoint" />
            <mxPoint x="8" y="37" as="targetPoint" />
          </mxGeometry>
        </mxCell>
        <mxCell id="at9RbOZ54mhqnbz547Yu-64" value="" style="endArrow=none;html=1;sketch=1;" parent="at9RbOZ54mhqnbz547Yu-59" edge="1">
          <mxGeometry width="50" height="50" relative="1" as="geometry">
            <mxPoint x="4" y="46" as="sourcePoint" />
            <mxPoint x="7" y="37" as="targetPoint" />
          </mxGeometry>
        </mxCell>
        <mxCell id="at9RbOZ54mhqnbz547Yu-65" value="" style="endArrow=none;html=1;sketch=1;" parent="at9RbOZ54mhqnbz547Yu-59" edge="1">
          <mxGeometry width="50" height="50" relative="1" as="geometry">
            <mxPoint x="14" y="26" as="sourcePoint" />
            <mxPoint x="9" y="20" as="targetPoint" />
          </mxGeometry>
        </mxCell>
        <mxCell id="at9RbOZ54mhqnbz547Yu-66" value="" style="endArrow=none;html=1;sketch=1;" parent="at9RbOZ54mhqnbz547Yu-59" edge="1">
          <mxGeometry width="50" height="50" relative="1" as="geometry">
            <mxPoint x="3" y="27" as="sourcePoint" />
            <mxPoint x="8" y="21" as="targetPoint" />
          </mxGeometry>
        </mxCell>
        <mxCell id="at9RbOZ54mhqnbz547Yu-67" value="" style="endArrow=none;html=1;sketch=1;" parent="at9RbOZ54mhqnbz547Yu-59" edge="1">
          <mxGeometry width="50" height="50" relative="1" as="geometry">
            <mxPoint x="1" y="55" as="sourcePoint" />
            <mxPoint x="4" y="46" as="targetPoint" />
          </mxGeometry>
        </mxCell>
        <mxCell id="at9RbOZ54mhqnbz547Yu-68" value="" style="endArrow=none;html=1;sketch=1;" parent="at9RbOZ54mhqnbz547Yu-59" edge="1">
          <mxGeometry width="50" height="50" relative="1" as="geometry">
            <mxPoint x="18" y="55" as="sourcePoint" />
            <mxPoint x="15" y="46" as="targetPoint" />
          </mxGeometry>
        </mxCell>
        <mxCell id="at9RbOZ54mhqnbz547Yu-69" value="" style="endArrow=none;html=1;sketch=1;" parent="at9RbOZ54mhqnbz547Yu-59" edge="1">
          <mxGeometry width="50" height="50" relative="1" as="geometry">
            <mxPoint x="19" y="32" as="sourcePoint" />
            <mxPoint x="14" y="26" as="targetPoint" />
          </mxGeometry>
        </mxCell>
        <mxCell id="at9RbOZ54mhqnbz547Yu-70" value="" style="endArrow=none;html=1;sketch=1;" parent="at9RbOZ54mhqnbz547Yu-59" edge="1">
          <mxGeometry width="50" height="50" relative="1" as="geometry">
            <mxPoint x="1" y="34" as="sourcePoint" />
            <mxPoint x="3" y="27" as="targetPoint" />
          </mxGeometry>
        </mxCell>
        <mxCell id="at9RbOZ54mhqnbz547Yu-71" value="" style="group" parent="1" vertex="1" connectable="0">
          <mxGeometry x="42" y="80" width="19" height="55" as="geometry" />
        </mxCell>
        <mxCell id="at9RbOZ54mhqnbz547Yu-72" value="" style="ellipse;whiteSpace=wrap;html=1;sketch=1;strokeColor=#000000;fillColor=none;aspect=fixed;" parent="at9RbOZ54mhqnbz547Yu-71" vertex="1">
          <mxGeometry width="15" height="15" as="geometry" />
        </mxCell>
        <mxCell id="at9RbOZ54mhqnbz547Yu-73" value="" style="endArrow=none;html=1;sketch=1;entryX=0.5;entryY=1;entryDx=0;entryDy=0;" parent="at9RbOZ54mhqnbz547Yu-71" target="at9RbOZ54mhqnbz547Yu-72" edge="1">
          <mxGeometry width="50" height="50" relative="1" as="geometry">
            <mxPoint x="8" y="20" as="sourcePoint" />
            <mxPoint x="50" y="60" as="targetPoint" />
          </mxGeometry>
        </mxCell>
        <mxCell id="at9RbOZ54mhqnbz547Yu-74" value="" style="endArrow=none;html=1;sketch=1;" parent="at9RbOZ54mhqnbz547Yu-71" edge="1">
          <mxGeometry width="50" height="50" relative="1" as="geometry">
            <mxPoint x="8" y="36" as="sourcePoint" />
            <mxPoint x="8" y="20" as="targetPoint" />
          </mxGeometry>
        </mxCell>
        <mxCell id="at9RbOZ54mhqnbz547Yu-75" value="" style="endArrow=none;html=1;sketch=1;" parent="at9RbOZ54mhqnbz547Yu-71" edge="1">
          <mxGeometry width="50" height="50" relative="1" as="geometry">
            <mxPoint x="15" y="46" as="sourcePoint" />
            <mxPoint x="8" y="37" as="targetPoint" />
          </mxGeometry>
        </mxCell>
        <mxCell id="at9RbOZ54mhqnbz547Yu-76" value="" style="endArrow=none;html=1;sketch=1;" parent="at9RbOZ54mhqnbz547Yu-71" edge="1">
          <mxGeometry width="50" height="50" relative="1" as="geometry">
            <mxPoint x="4" y="46" as="sourcePoint" />
            <mxPoint x="7" y="37" as="targetPoint" />
          </mxGeometry>
        </mxCell>
        <mxCell id="at9RbOZ54mhqnbz547Yu-77" value="" style="endArrow=none;html=1;sketch=1;" parent="at9RbOZ54mhqnbz547Yu-71" edge="1">
          <mxGeometry width="50" height="50" relative="1" as="geometry">
            <mxPoint x="14" y="26" as="sourcePoint" />
            <mxPoint x="9" y="20" as="targetPoint" />
          </mxGeometry>
        </mxCell>
        <mxCell id="at9RbOZ54mhqnbz547Yu-78" value="" style="endArrow=none;html=1;sketch=1;" parent="at9RbOZ54mhqnbz547Yu-71" edge="1">
          <mxGeometry width="50" height="50" relative="1" as="geometry">
            <mxPoint x="3" y="27" as="sourcePoint" />
            <mxPoint x="8" y="21" as="targetPoint" />
          </mxGeometry>
        </mxCell>
        <mxCell id="at9RbOZ54mhqnbz547Yu-79" value="" style="endArrow=none;html=1;sketch=1;" parent="at9RbOZ54mhqnbz547Yu-71" edge="1">
          <mxGeometry width="50" height="50" relative="1" as="geometry">
            <mxPoint x="1" y="55" as="sourcePoint" />
            <mxPoint x="4" y="46" as="targetPoint" />
          </mxGeometry>
        </mxCell>
        <mxCell id="at9RbOZ54mhqnbz547Yu-80" value="" style="endArrow=none;html=1;sketch=1;" parent="at9RbOZ54mhqnbz547Yu-71" edge="1">
          <mxGeometry width="50" height="50" relative="1" as="geometry">
            <mxPoint x="18" y="55" as="sourcePoint" />
            <mxPoint x="15" y="46" as="targetPoint" />
          </mxGeometry>
        </mxCell>
        <mxCell id="at9RbOZ54mhqnbz547Yu-81" value="" style="endArrow=none;html=1;sketch=1;" parent="at9RbOZ54mhqnbz547Yu-71" edge="1">
          <mxGeometry width="50" height="50" relative="1" as="geometry">
            <mxPoint x="19" y="32" as="sourcePoint" />
            <mxPoint x="14" y="26" as="targetPoint" />
          </mxGeometry>
        </mxCell>
        <mxCell id="at9RbOZ54mhqnbz547Yu-82" value="" style="endArrow=none;html=1;sketch=1;" parent="at9RbOZ54mhqnbz547Yu-71" edge="1">
          <mxGeometry width="50" height="50" relative="1" as="geometry">
            <mxPoint x="1" y="34" as="sourcePoint" />
            <mxPoint x="3" y="27" as="targetPoint" />
          </mxGeometry>
        </mxCell>
        <mxCell id="at9RbOZ54mhqnbz547Yu-83" value="" style="group" parent="1" vertex="1" connectable="0">
          <mxGeometry x="72" y="80" width="19" height="55" as="geometry" />
        </mxCell>
        <mxCell id="at9RbOZ54mhqnbz547Yu-84" value="" style="ellipse;whiteSpace=wrap;html=1;sketch=1;strokeColor=#000000;fillColor=none;aspect=fixed;" parent="at9RbOZ54mhqnbz547Yu-83" vertex="1">
          <mxGeometry width="15" height="15" as="geometry" />
        </mxCell>
        <mxCell id="at9RbOZ54mhqnbz547Yu-85" value="" style="endArrow=none;html=1;sketch=1;entryX=0.5;entryY=1;entryDx=0;entryDy=0;" parent="at9RbOZ54mhqnbz547Yu-83" target="at9RbOZ54mhqnbz547Yu-84" edge="1">
          <mxGeometry width="50" height="50" relative="1" as="geometry">
            <mxPoint x="8" y="20" as="sourcePoint" />
            <mxPoint x="50" y="60" as="targetPoint" />
          </mxGeometry>
        </mxCell>
        <mxCell id="at9RbOZ54mhqnbz547Yu-86" value="" style="endArrow=none;html=1;sketch=1;" parent="at9RbOZ54mhqnbz547Yu-83" edge="1">
          <mxGeometry width="50" height="50" relative="1" as="geometry">
            <mxPoint x="8" y="36" as="sourcePoint" />
            <mxPoint x="8" y="20" as="targetPoint" />
          </mxGeometry>
        </mxCell>
        <mxCell id="at9RbOZ54mhqnbz547Yu-87" value="" style="endArrow=none;html=1;sketch=1;" parent="at9RbOZ54mhqnbz547Yu-83" edge="1">
          <mxGeometry width="50" height="50" relative="1" as="geometry">
            <mxPoint x="15" y="46" as="sourcePoint" />
            <mxPoint x="8" y="37" as="targetPoint" />
          </mxGeometry>
        </mxCell>
        <mxCell id="at9RbOZ54mhqnbz547Yu-88" value="" style="endArrow=none;html=1;sketch=1;" parent="at9RbOZ54mhqnbz547Yu-83" edge="1">
          <mxGeometry width="50" height="50" relative="1" as="geometry">
            <mxPoint x="4" y="46" as="sourcePoint" />
            <mxPoint x="7" y="37" as="targetPoint" />
          </mxGeometry>
        </mxCell>
        <mxCell id="at9RbOZ54mhqnbz547Yu-89" value="" style="endArrow=none;html=1;sketch=1;" parent="at9RbOZ54mhqnbz547Yu-83" edge="1">
          <mxGeometry width="50" height="50" relative="1" as="geometry">
            <mxPoint x="14" y="26" as="sourcePoint" />
            <mxPoint x="9" y="20" as="targetPoint" />
          </mxGeometry>
        </mxCell>
        <mxCell id="at9RbOZ54mhqnbz547Yu-90" value="" style="endArrow=none;html=1;sketch=1;" parent="at9RbOZ54mhqnbz547Yu-83" edge="1">
          <mxGeometry width="50" height="50" relative="1" as="geometry">
            <mxPoint x="3" y="27" as="sourcePoint" />
            <mxPoint x="8" y="21" as="targetPoint" />
          </mxGeometry>
        </mxCell>
        <mxCell id="at9RbOZ54mhqnbz547Yu-91" value="" style="endArrow=none;html=1;sketch=1;" parent="at9RbOZ54mhqnbz547Yu-83" edge="1">
          <mxGeometry width="50" height="50" relative="1" as="geometry">
            <mxPoint x="1" y="55" as="sourcePoint" />
            <mxPoint x="4" y="46" as="targetPoint" />
          </mxGeometry>
        </mxCell>
        <mxCell id="at9RbOZ54mhqnbz547Yu-92" value="" style="endArrow=none;html=1;sketch=1;" parent="at9RbOZ54mhqnbz547Yu-83" edge="1">
          <mxGeometry width="50" height="50" relative="1" as="geometry">
            <mxPoint x="18" y="55" as="sourcePoint" />
            <mxPoint x="15" y="46" as="targetPoint" />
          </mxGeometry>
        </mxCell>
        <mxCell id="at9RbOZ54mhqnbz547Yu-93" value="" style="endArrow=none;html=1;sketch=1;" parent="at9RbOZ54mhqnbz547Yu-83" edge="1">
          <mxGeometry width="50" height="50" relative="1" as="geometry">
            <mxPoint x="19" y="32" as="sourcePoint" />
            <mxPoint x="14" y="26" as="targetPoint" />
          </mxGeometry>
        </mxCell>
        <mxCell id="at9RbOZ54mhqnbz547Yu-94" value="" style="endArrow=none;html=1;sketch=1;" parent="at9RbOZ54mhqnbz547Yu-83" edge="1">
          <mxGeometry width="50" height="50" relative="1" as="geometry">
            <mxPoint x="1" y="34" as="sourcePoint" />
            <mxPoint x="3" y="27" as="targetPoint" />
          </mxGeometry>
        </mxCell>
        <mxCell id="at9RbOZ54mhqnbz547Yu-95" value="" style="group" parent="1" vertex="1" connectable="0">
          <mxGeometry x="12" y="150" width="19" height="55" as="geometry" />
        </mxCell>
        <mxCell id="at9RbOZ54mhqnbz547Yu-96" value="" style="ellipse;whiteSpace=wrap;html=1;sketch=1;strokeColor=#000000;fillColor=none;aspect=fixed;" parent="at9RbOZ54mhqnbz547Yu-95" vertex="1">
          <mxGeometry width="15" height="15" as="geometry" />
        </mxCell>
        <mxCell id="at9RbOZ54mhqnbz547Yu-97" value="" style="endArrow=none;html=1;sketch=1;entryX=0.5;entryY=1;entryDx=0;entryDy=0;" parent="at9RbOZ54mhqnbz547Yu-95" target="at9RbOZ54mhqnbz547Yu-96" edge="1">
          <mxGeometry width="50" height="50" relative="1" as="geometry">
            <mxPoint x="8" y="20" as="sourcePoint" />
            <mxPoint x="50" y="60" as="targetPoint" />
          </mxGeometry>
        </mxCell>
        <mxCell id="at9RbOZ54mhqnbz547Yu-98" value="" style="endArrow=none;html=1;sketch=1;" parent="at9RbOZ54mhqnbz547Yu-95" edge="1">
          <mxGeometry width="50" height="50" relative="1" as="geometry">
            <mxPoint x="8" y="36" as="sourcePoint" />
            <mxPoint x="8" y="20" as="targetPoint" />
          </mxGeometry>
        </mxCell>
        <mxCell id="at9RbOZ54mhqnbz547Yu-99" value="" style="endArrow=none;html=1;sketch=1;" parent="at9RbOZ54mhqnbz547Yu-95" edge="1">
          <mxGeometry width="50" height="50" relative="1" as="geometry">
            <mxPoint x="14" y="42" as="sourcePoint" />
            <mxPoint x="8" y="37" as="targetPoint" />
          </mxGeometry>
        </mxCell>
        <mxCell id="at9RbOZ54mhqnbz547Yu-100" value="" style="endArrow=none;html=1;sketch=1;" parent="at9RbOZ54mhqnbz547Yu-95" edge="1">
          <mxGeometry width="50" height="50" relative="1" as="geometry">
            <mxPoint x="2" y="42" as="sourcePoint" />
            <mxPoint x="7" y="37" as="targetPoint" />
          </mxGeometry>
        </mxCell>
        <mxCell id="at9RbOZ54mhqnbz547Yu-101" value="" style="endArrow=none;html=1;sketch=1;" parent="at9RbOZ54mhqnbz547Yu-95" edge="1">
          <mxGeometry width="50" height="50" relative="1" as="geometry">
            <mxPoint x="14" y="26" as="sourcePoint" />
            <mxPoint x="9" y="20" as="targetPoint" />
          </mxGeometry>
        </mxCell>
        <mxCell id="at9RbOZ54mhqnbz547Yu-102" value="" style="endArrow=none;html=1;sketch=1;" parent="at9RbOZ54mhqnbz547Yu-95" edge="1">
          <mxGeometry width="50" height="50" relative="1" as="geometry">
            <mxPoint x="3" y="27" as="sourcePoint" />
            <mxPoint x="8" y="21" as="targetPoint" />
          </mxGeometry>
        </mxCell>
        <mxCell id="at9RbOZ54mhqnbz547Yu-103" value="" style="endArrow=none;html=1;sketch=1;" parent="at9RbOZ54mhqnbz547Yu-95" edge="1">
          <mxGeometry width="50" height="50" relative="1" as="geometry">
            <mxPoint x="1" y="46" as="sourcePoint" />
            <mxPoint x="2" y="42" as="targetPoint" />
          </mxGeometry>
        </mxCell>
        <mxCell id="at9RbOZ54mhqnbz547Yu-104" value="" style="endArrow=none;html=1;sketch=1;" parent="at9RbOZ54mhqnbz547Yu-95" edge="1">
          <mxGeometry width="50" height="50" relative="1" as="geometry">
            <mxPoint x="16" y="47" as="sourcePoint" />
            <mxPoint x="14" y="42" as="targetPoint" />
          </mxGeometry>
        </mxCell>
        <mxCell id="at9RbOZ54mhqnbz547Yu-105" value="" style="endArrow=none;html=1;sketch=1;" parent="at9RbOZ54mhqnbz547Yu-95" edge="1">
          <mxGeometry width="50" height="50" relative="1" as="geometry">
            <mxPoint x="19" y="32" as="sourcePoint" />
            <mxPoint x="14" y="26" as="targetPoint" />
          </mxGeometry>
        </mxCell>
        <mxCell id="at9RbOZ54mhqnbz547Yu-106" value="" style="endArrow=none;html=1;sketch=1;" parent="at9RbOZ54mhqnbz547Yu-95" edge="1">
          <mxGeometry width="50" height="50" relative="1" as="geometry">
            <mxPoint x="1" y="34" as="sourcePoint" />
            <mxPoint x="3" y="27" as="targetPoint" />
          </mxGeometry>
        </mxCell>
        <mxCell id="at9RbOZ54mhqnbz547Yu-107" value="" style="group" parent="1" vertex="1" connectable="0">
          <mxGeometry x="42" y="150" width="19" height="55" as="geometry" />
        </mxCell>
        <mxCell id="at9RbOZ54mhqnbz547Yu-108" value="" style="ellipse;whiteSpace=wrap;html=1;sketch=1;strokeColor=#000000;fillColor=none;aspect=fixed;" parent="at9RbOZ54mhqnbz547Yu-107" vertex="1">
          <mxGeometry width="15" height="15" as="geometry" />
        </mxCell>
        <mxCell id="at9RbOZ54mhqnbz547Yu-109" value="" style="endArrow=none;html=1;sketch=1;entryX=0.5;entryY=1;entryDx=0;entryDy=0;" parent="at9RbOZ54mhqnbz547Yu-107" target="at9RbOZ54mhqnbz547Yu-108" edge="1">
          <mxGeometry width="50" height="50" relative="1" as="geometry">
            <mxPoint x="8" y="20" as="sourcePoint" />
            <mxPoint x="50" y="60" as="targetPoint" />
          </mxGeometry>
        </mxCell>
        <mxCell id="at9RbOZ54mhqnbz547Yu-110" value="" style="endArrow=none;html=1;sketch=1;" parent="at9RbOZ54mhqnbz547Yu-107" edge="1">
          <mxGeometry width="50" height="50" relative="1" as="geometry">
            <mxPoint x="8" y="36" as="sourcePoint" />
            <mxPoint x="8" y="20" as="targetPoint" />
          </mxGeometry>
        </mxCell>
        <mxCell id="at9RbOZ54mhqnbz547Yu-111" value="" style="endArrow=none;html=1;sketch=1;" parent="at9RbOZ54mhqnbz547Yu-107" edge="1">
          <mxGeometry width="50" height="50" relative="1" as="geometry">
            <mxPoint x="14" y="42" as="sourcePoint" />
            <mxPoint x="8" y="37" as="targetPoint" />
          </mxGeometry>
        </mxCell>
        <mxCell id="at9RbOZ54mhqnbz547Yu-112" value="" style="endArrow=none;html=1;sketch=1;" parent="at9RbOZ54mhqnbz547Yu-107" edge="1">
          <mxGeometry width="50" height="50" relative="1" as="geometry">
            <mxPoint x="2" y="42" as="sourcePoint" />
            <mxPoint x="7" y="37" as="targetPoint" />
          </mxGeometry>
        </mxCell>
        <mxCell id="at9RbOZ54mhqnbz547Yu-113" value="" style="endArrow=none;html=1;sketch=1;" parent="at9RbOZ54mhqnbz547Yu-107" edge="1">
          <mxGeometry width="50" height="50" relative="1" as="geometry">
            <mxPoint x="14" y="26" as="sourcePoint" />
            <mxPoint x="9" y="20" as="targetPoint" />
          </mxGeometry>
        </mxCell>
        <mxCell id="at9RbOZ54mhqnbz547Yu-114" value="" style="endArrow=none;html=1;sketch=1;" parent="at9RbOZ54mhqnbz547Yu-107" edge="1">
          <mxGeometry width="50" height="50" relative="1" as="geometry">
            <mxPoint x="3" y="27" as="sourcePoint" />
            <mxPoint x="8" y="21" as="targetPoint" />
          </mxGeometry>
        </mxCell>
        <mxCell id="at9RbOZ54mhqnbz547Yu-115" value="" style="endArrow=none;html=1;sketch=1;" parent="at9RbOZ54mhqnbz547Yu-107" edge="1">
          <mxGeometry width="50" height="50" relative="1" as="geometry">
            <mxPoint x="1" y="46" as="sourcePoint" />
            <mxPoint x="2" y="42" as="targetPoint" />
          </mxGeometry>
        </mxCell>
        <mxCell id="at9RbOZ54mhqnbz547Yu-116" value="" style="endArrow=none;html=1;sketch=1;" parent="at9RbOZ54mhqnbz547Yu-107" edge="1">
          <mxGeometry width="50" height="50" relative="1" as="geometry">
            <mxPoint x="16" y="47" as="sourcePoint" />
            <mxPoint x="14" y="42" as="targetPoint" />
          </mxGeometry>
        </mxCell>
        <mxCell id="at9RbOZ54mhqnbz547Yu-117" value="" style="endArrow=none;html=1;sketch=1;" parent="at9RbOZ54mhqnbz547Yu-107" edge="1">
          <mxGeometry width="50" height="50" relative="1" as="geometry">
            <mxPoint x="19" y="32" as="sourcePoint" />
            <mxPoint x="14" y="26" as="targetPoint" />
          </mxGeometry>
        </mxCell>
        <mxCell id="at9RbOZ54mhqnbz547Yu-118" value="" style="endArrow=none;html=1;sketch=1;" parent="at9RbOZ54mhqnbz547Yu-107" edge="1">
          <mxGeometry width="50" height="50" relative="1" as="geometry">
            <mxPoint x="1" y="34" as="sourcePoint" />
            <mxPoint x="3" y="27" as="targetPoint" />
          </mxGeometry>
        </mxCell>
        <mxCell id="at9RbOZ54mhqnbz547Yu-119" value="" style="group" parent="1" vertex="1" connectable="0">
          <mxGeometry x="72" y="150" width="19" height="55" as="geometry" />
        </mxCell>
        <mxCell id="at9RbOZ54mhqnbz547Yu-120" value="" style="ellipse;whiteSpace=wrap;html=1;sketch=1;strokeColor=#000000;fillColor=none;aspect=fixed;" parent="at9RbOZ54mhqnbz547Yu-119" vertex="1">
          <mxGeometry width="15" height="15" as="geometry" />
        </mxCell>
        <mxCell id="at9RbOZ54mhqnbz547Yu-121" value="" style="endArrow=none;html=1;sketch=1;entryX=0.5;entryY=1;entryDx=0;entryDy=0;" parent="at9RbOZ54mhqnbz547Yu-119" target="at9RbOZ54mhqnbz547Yu-120" edge="1">
          <mxGeometry width="50" height="50" relative="1" as="geometry">
            <mxPoint x="8" y="20" as="sourcePoint" />
            <mxPoint x="50" y="60" as="targetPoint" />
          </mxGeometry>
        </mxCell>
        <mxCell id="at9RbOZ54mhqnbz547Yu-122" value="" style="endArrow=none;html=1;sketch=1;" parent="at9RbOZ54mhqnbz547Yu-119" edge="1">
          <mxGeometry width="50" height="50" relative="1" as="geometry">
            <mxPoint x="8" y="36" as="sourcePoint" />
            <mxPoint x="8" y="20" as="targetPoint" />
          </mxGeometry>
        </mxCell>
        <mxCell id="at9RbOZ54mhqnbz547Yu-123" value="" style="endArrow=none;html=1;sketch=1;" parent="at9RbOZ54mhqnbz547Yu-119" edge="1">
          <mxGeometry width="50" height="50" relative="1" as="geometry">
            <mxPoint x="15" y="46" as="sourcePoint" />
            <mxPoint x="8" y="37" as="targetPoint" />
          </mxGeometry>
        </mxCell>
        <mxCell id="at9RbOZ54mhqnbz547Yu-124" value="" style="endArrow=none;html=1;sketch=1;" parent="at9RbOZ54mhqnbz547Yu-119" edge="1">
          <mxGeometry width="50" height="50" relative="1" as="geometry">
            <mxPoint x="4" y="46" as="sourcePoint" />
            <mxPoint x="7" y="37" as="targetPoint" />
          </mxGeometry>
        </mxCell>
        <mxCell id="at9RbOZ54mhqnbz547Yu-125" value="" style="endArrow=none;html=1;sketch=1;" parent="at9RbOZ54mhqnbz547Yu-119" edge="1">
          <mxGeometry width="50" height="50" relative="1" as="geometry">
            <mxPoint x="14" y="26" as="sourcePoint" />
            <mxPoint x="9" y="20" as="targetPoint" />
          </mxGeometry>
        </mxCell>
        <mxCell id="at9RbOZ54mhqnbz547Yu-126" value="" style="endArrow=none;html=1;sketch=1;" parent="at9RbOZ54mhqnbz547Yu-119" edge="1">
          <mxGeometry width="50" height="50" relative="1" as="geometry">
            <mxPoint x="3" y="27" as="sourcePoint" />
            <mxPoint x="8" y="21" as="targetPoint" />
          </mxGeometry>
        </mxCell>
        <mxCell id="at9RbOZ54mhqnbz547Yu-127" value="" style="endArrow=none;html=1;sketch=1;" parent="at9RbOZ54mhqnbz547Yu-119" edge="1">
          <mxGeometry width="50" height="50" relative="1" as="geometry">
            <mxPoint x="1" y="55" as="sourcePoint" />
            <mxPoint x="4" y="46" as="targetPoint" />
          </mxGeometry>
        </mxCell>
        <mxCell id="at9RbOZ54mhqnbz547Yu-128" value="" style="endArrow=none;html=1;sketch=1;" parent="at9RbOZ54mhqnbz547Yu-119" edge="1">
          <mxGeometry width="50" height="50" relative="1" as="geometry">
            <mxPoint x="18" y="55" as="sourcePoint" />
            <mxPoint x="15" y="46" as="targetPoint" />
          </mxGeometry>
        </mxCell>
        <mxCell id="at9RbOZ54mhqnbz547Yu-129" value="" style="endArrow=none;html=1;sketch=1;" parent="at9RbOZ54mhqnbz547Yu-119" edge="1">
          <mxGeometry width="50" height="50" relative="1" as="geometry">
            <mxPoint x="19" y="32" as="sourcePoint" />
            <mxPoint x="14" y="26" as="targetPoint" />
          </mxGeometry>
        </mxCell>
        <mxCell id="at9RbOZ54mhqnbz547Yu-130" value="" style="endArrow=none;html=1;sketch=1;" parent="at9RbOZ54mhqnbz547Yu-119" edge="1">
          <mxGeometry width="50" height="50" relative="1" as="geometry">
            <mxPoint x="1" y="34" as="sourcePoint" />
            <mxPoint x="3" y="27" as="targetPoint" />
          </mxGeometry>
        </mxCell>
        <mxCell id="at9RbOZ54mhqnbz547Yu-143" value="" style="group" parent="1" vertex="1" connectable="0">
          <mxGeometry x="102" y="150" width="19" height="55" as="geometry" />
        </mxCell>
        <mxCell id="at9RbOZ54mhqnbz547Yu-144" value="" style="ellipse;whiteSpace=wrap;html=1;sketch=1;strokeColor=#000000;fillColor=none;aspect=fixed;" parent="at9RbOZ54mhqnbz547Yu-143" vertex="1">
          <mxGeometry width="15" height="15" as="geometry" />
        </mxCell>
        <mxCell id="at9RbOZ54mhqnbz547Yu-145" value="" style="endArrow=none;html=1;sketch=1;entryX=0.5;entryY=1;entryDx=0;entryDy=0;" parent="at9RbOZ54mhqnbz547Yu-143" target="at9RbOZ54mhqnbz547Yu-144" edge="1">
          <mxGeometry width="50" height="50" relative="1" as="geometry">
            <mxPoint x="8" y="20" as="sourcePoint" />
            <mxPoint x="50" y="60" as="targetPoint" />
          </mxGeometry>
        </mxCell>
        <mxCell id="at9RbOZ54mhqnbz547Yu-146" value="" style="endArrow=none;html=1;sketch=1;" parent="at9RbOZ54mhqnbz547Yu-143" edge="1">
          <mxGeometry width="50" height="50" relative="1" as="geometry">
            <mxPoint x="8" y="36" as="sourcePoint" />
            <mxPoint x="8" y="20" as="targetPoint" />
          </mxGeometry>
        </mxCell>
        <mxCell id="at9RbOZ54mhqnbz547Yu-147" value="" style="endArrow=none;html=1;sketch=1;" parent="at9RbOZ54mhqnbz547Yu-143" edge="1">
          <mxGeometry width="50" height="50" relative="1" as="geometry">
            <mxPoint x="10" y="46" as="sourcePoint" />
            <mxPoint x="8" y="37" as="targetPoint" />
          </mxGeometry>
        </mxCell>
        <mxCell id="at9RbOZ54mhqnbz547Yu-148" value="" style="endArrow=none;html=1;sketch=1;" parent="at9RbOZ54mhqnbz547Yu-143" edge="1">
          <mxGeometry width="50" height="50" relative="1" as="geometry">
            <mxPoint x="6" y="46" as="sourcePoint" />
            <mxPoint x="7" y="37" as="targetPoint" />
          </mxGeometry>
        </mxCell>
        <mxCell id="at9RbOZ54mhqnbz547Yu-149" value="" style="endArrow=none;html=1;sketch=1;" parent="at9RbOZ54mhqnbz547Yu-143" edge="1">
          <mxGeometry width="50" height="50" relative="1" as="geometry">
            <mxPoint x="11" y="28" as="sourcePoint" />
            <mxPoint x="9" y="20" as="targetPoint" />
          </mxGeometry>
        </mxCell>
        <mxCell id="at9RbOZ54mhqnbz547Yu-150" value="" style="endArrow=none;html=1;sketch=1;" parent="at9RbOZ54mhqnbz547Yu-143" edge="1">
          <mxGeometry width="50" height="50" relative="1" as="geometry">
            <mxPoint x="6" y="29" as="sourcePoint" />
            <mxPoint x="8" y="21" as="targetPoint" />
          </mxGeometry>
        </mxCell>
        <mxCell id="at9RbOZ54mhqnbz547Yu-151" value="" style="endArrow=none;html=1;sketch=1;" parent="at9RbOZ54mhqnbz547Yu-143" edge="1">
          <mxGeometry width="50" height="50" relative="1" as="geometry">
            <mxPoint x="4" y="54" as="sourcePoint" />
            <mxPoint x="5" y="46" as="targetPoint" />
          </mxGeometry>
        </mxCell>
        <mxCell id="at9RbOZ54mhqnbz547Yu-152" value="" style="endArrow=none;html=1;sketch=1;" parent="at9RbOZ54mhqnbz547Yu-143" edge="1">
          <mxGeometry width="50" height="50" relative="1" as="geometry">
            <mxPoint x="12" y="53" as="sourcePoint" />
            <mxPoint x="10" y="45" as="targetPoint" />
          </mxGeometry>
        </mxCell>
        <mxCell id="at9RbOZ54mhqnbz547Yu-153" value="" style="endArrow=none;html=1;sketch=1;" parent="at9RbOZ54mhqnbz547Yu-143" edge="1">
          <mxGeometry width="50" height="50" relative="1" as="geometry">
            <mxPoint x="12" y="34" as="sourcePoint" />
            <mxPoint x="11" y="28" as="targetPoint" />
          </mxGeometry>
        </mxCell>
        <mxCell id="at9RbOZ54mhqnbz547Yu-154" value="" style="endArrow=none;html=1;sketch=1;" parent="at9RbOZ54mhqnbz547Yu-143" edge="1">
          <mxGeometry width="50" height="50" relative="1" as="geometry">
            <mxPoint x="4" y="36" as="sourcePoint" />
            <mxPoint x="6" y="29" as="targetPoint" />
          </mxGeometry>
        </mxCell>
        <mxCell id="at9RbOZ54mhqnbz547Yu-155" value="" style="group" parent="1" vertex="1" connectable="0">
          <mxGeometry x="132" y="150" width="19" height="55" as="geometry" />
        </mxCell>
        <mxCell id="at9RbOZ54mhqnbz547Yu-156" value="" style="ellipse;whiteSpace=wrap;html=1;sketch=1;strokeColor=#000000;fillColor=none;aspect=fixed;" parent="at9RbOZ54mhqnbz547Yu-155" vertex="1">
          <mxGeometry width="15" height="15" as="geometry" />
        </mxCell>
        <mxCell id="at9RbOZ54mhqnbz547Yu-157" value="" style="endArrow=none;html=1;sketch=1;entryX=0.5;entryY=1;entryDx=0;entryDy=0;" parent="at9RbOZ54mhqnbz547Yu-155" target="at9RbOZ54mhqnbz547Yu-156" edge="1">
          <mxGeometry width="50" height="50" relative="1" as="geometry">
            <mxPoint x="8" y="20" as="sourcePoint" />
            <mxPoint x="50" y="60" as="targetPoint" />
          </mxGeometry>
        </mxCell>
        <mxCell id="at9RbOZ54mhqnbz547Yu-158" value="" style="endArrow=none;html=1;sketch=1;" parent="at9RbOZ54mhqnbz547Yu-155" edge="1">
          <mxGeometry width="50" height="50" relative="1" as="geometry">
            <mxPoint x="8" y="36" as="sourcePoint" />
            <mxPoint x="8" y="20" as="targetPoint" />
          </mxGeometry>
        </mxCell>
        <mxCell id="at9RbOZ54mhqnbz547Yu-159" value="" style="endArrow=none;html=1;sketch=1;" parent="at9RbOZ54mhqnbz547Yu-155" edge="1">
          <mxGeometry width="50" height="50" relative="1" as="geometry">
            <mxPoint x="10" y="46" as="sourcePoint" />
            <mxPoint x="8" y="37" as="targetPoint" />
          </mxGeometry>
        </mxCell>
        <mxCell id="at9RbOZ54mhqnbz547Yu-160" value="" style="endArrow=none;html=1;sketch=1;" parent="at9RbOZ54mhqnbz547Yu-155" edge="1">
          <mxGeometry width="50" height="50" relative="1" as="geometry">
            <mxPoint x="6" y="46" as="sourcePoint" />
            <mxPoint x="7" y="37" as="targetPoint" />
          </mxGeometry>
        </mxCell>
        <mxCell id="at9RbOZ54mhqnbz547Yu-161" value="" style="endArrow=none;html=1;sketch=1;" parent="at9RbOZ54mhqnbz547Yu-155" edge="1">
          <mxGeometry width="50" height="50" relative="1" as="geometry">
            <mxPoint x="11" y="28" as="sourcePoint" />
            <mxPoint x="9" y="20" as="targetPoint" />
          </mxGeometry>
        </mxCell>
        <mxCell id="at9RbOZ54mhqnbz547Yu-162" value="" style="endArrow=none;html=1;sketch=1;" parent="at9RbOZ54mhqnbz547Yu-155" edge="1">
          <mxGeometry width="50" height="50" relative="1" as="geometry">
            <mxPoint x="6" y="29" as="sourcePoint" />
            <mxPoint x="8" y="21" as="targetPoint" />
          </mxGeometry>
        </mxCell>
        <mxCell id="at9RbOZ54mhqnbz547Yu-163" value="" style="endArrow=none;html=1;sketch=1;" parent="at9RbOZ54mhqnbz547Yu-155" edge="1">
          <mxGeometry width="50" height="50" relative="1" as="geometry">
            <mxPoint x="5" y="54" as="sourcePoint" />
            <mxPoint x="6" y="46" as="targetPoint" />
          </mxGeometry>
        </mxCell>
        <mxCell id="at9RbOZ54mhqnbz547Yu-164" value="" style="endArrow=none;html=1;sketch=1;" parent="at9RbOZ54mhqnbz547Yu-155" edge="1">
          <mxGeometry width="50" height="50" relative="1" as="geometry">
            <mxPoint x="12" y="53" as="sourcePoint" />
            <mxPoint x="10" y="45" as="targetPoint" />
          </mxGeometry>
        </mxCell>
        <mxCell id="at9RbOZ54mhqnbz547Yu-165" value="" style="endArrow=none;html=1;sketch=1;" parent="at9RbOZ54mhqnbz547Yu-155" edge="1">
          <mxGeometry width="50" height="50" relative="1" as="geometry">
            <mxPoint x="12" y="34" as="sourcePoint" />
            <mxPoint x="11" y="28" as="targetPoint" />
          </mxGeometry>
        </mxCell>
        <mxCell id="at9RbOZ54mhqnbz547Yu-166" value="" style="endArrow=none;html=1;sketch=1;" parent="at9RbOZ54mhqnbz547Yu-155" edge="1">
          <mxGeometry width="50" height="50" relative="1" as="geometry">
            <mxPoint x="4" y="36" as="sourcePoint" />
            <mxPoint x="6" y="29" as="targetPoint" />
          </mxGeometry>
        </mxCell>
        <mxCell id="at9RbOZ54mhqnbz547Yu-201" value="" style="group" parent="1" vertex="1" connectable="0">
          <mxGeometry x="8" y="210" width="23" height="55" as="geometry" />
        </mxCell>
        <mxCell id="at9RbOZ54mhqnbz547Yu-177" value="" style="endArrow=none;html=1;sketch=1;" parent="at9RbOZ54mhqnbz547Yu-201" edge="1">
          <mxGeometry width="50" height="50" relative="1" as="geometry">
            <mxPoint x="5" y="18" as="sourcePoint" />
            <mxPoint y="12" as="targetPoint" />
          </mxGeometry>
        </mxCell>
        <mxCell id="at9RbOZ54mhqnbz547Yu-168" value="" style="ellipse;whiteSpace=wrap;html=1;sketch=1;strokeColor=#000000;fillColor=none;aspect=fixed;" parent="at9RbOZ54mhqnbz547Yu-201" vertex="1">
          <mxGeometry x="4" width="15" height="15" as="geometry" />
        </mxCell>
        <mxCell id="at9RbOZ54mhqnbz547Yu-169" value="" style="endArrow=none;html=1;sketch=1;entryX=0.5;entryY=1;entryDx=0;entryDy=0;" parent="at9RbOZ54mhqnbz547Yu-201" target="at9RbOZ54mhqnbz547Yu-168" edge="1">
          <mxGeometry x="12" y="210" width="50" height="50" as="geometry">
            <mxPoint x="12" y="20" as="sourcePoint" />
            <mxPoint x="54" y="60" as="targetPoint" />
          </mxGeometry>
        </mxCell>
        <mxCell id="at9RbOZ54mhqnbz547Yu-170" value="" style="endArrow=none;html=1;sketch=1;" parent="at9RbOZ54mhqnbz547Yu-201" edge="1">
          <mxGeometry x="12" y="210" width="50" height="50" as="geometry">
            <mxPoint x="12" y="36" as="sourcePoint" />
            <mxPoint x="12" y="20" as="targetPoint" />
          </mxGeometry>
        </mxCell>
        <mxCell id="at9RbOZ54mhqnbz547Yu-171" value="" style="endArrow=none;html=1;sketch=1;" parent="at9RbOZ54mhqnbz547Yu-201" edge="1">
          <mxGeometry x="12" y="210" width="50" height="50" as="geometry">
            <mxPoint x="19" y="46" as="sourcePoint" />
            <mxPoint x="12" y="37" as="targetPoint" />
          </mxGeometry>
        </mxCell>
        <mxCell id="at9RbOZ54mhqnbz547Yu-172" value="" style="endArrow=none;html=1;sketch=1;" parent="at9RbOZ54mhqnbz547Yu-201" edge="1">
          <mxGeometry x="12" y="210" width="50" height="50" as="geometry">
            <mxPoint x="8" y="46" as="sourcePoint" />
            <mxPoint x="11" y="37" as="targetPoint" />
          </mxGeometry>
        </mxCell>
        <mxCell id="at9RbOZ54mhqnbz547Yu-173" value="" style="endArrow=none;html=1;sketch=1;" parent="at9RbOZ54mhqnbz547Yu-201" edge="1">
          <mxGeometry x="12" y="210" width="50" height="50" as="geometry">
            <mxPoint x="20" y="19" as="sourcePoint" />
            <mxPoint x="13" y="20" as="targetPoint" />
          </mxGeometry>
        </mxCell>
        <mxCell id="at9RbOZ54mhqnbz547Yu-174" value="" style="endArrow=none;html=1;sketch=1;" parent="at9RbOZ54mhqnbz547Yu-201" edge="1">
          <mxGeometry x="12" y="210" width="50" height="50" as="geometry">
            <mxPoint x="6" y="19" as="sourcePoint" />
            <mxPoint x="12" y="21" as="targetPoint" />
          </mxGeometry>
        </mxCell>
        <mxCell id="at9RbOZ54mhqnbz547Yu-175" value="" style="endArrow=none;html=1;sketch=1;" parent="at9RbOZ54mhqnbz547Yu-201" edge="1">
          <mxGeometry x="12" y="210" width="50" height="50" as="geometry">
            <mxPoint x="5" y="55" as="sourcePoint" />
            <mxPoint x="8" y="46" as="targetPoint" />
          </mxGeometry>
        </mxCell>
        <mxCell id="at9RbOZ54mhqnbz547Yu-176" value="" style="endArrow=none;html=1;sketch=1;" parent="at9RbOZ54mhqnbz547Yu-201" edge="1">
          <mxGeometry x="12" y="210" width="50" height="50" as="geometry">
            <mxPoint x="22" y="55" as="sourcePoint" />
            <mxPoint x="19" y="46" as="targetPoint" />
          </mxGeometry>
        </mxCell>
        <mxCell id="at9RbOZ54mhqnbz547Yu-178" value="" style="endArrow=none;html=1;sketch=1;" parent="at9RbOZ54mhqnbz547Yu-201" edge="1">
          <mxGeometry x="12" y="210" width="50" height="50" as="geometry">
            <mxPoint x="20" y="18" as="sourcePoint" />
            <mxPoint x="22" y="11" as="targetPoint" />
          </mxGeometry>
        </mxCell>
        <mxCell id="at9RbOZ54mhqnbz547Yu-213" value="" style="group" parent="1" vertex="1" connectable="0">
          <mxGeometry x="38" y="210" width="23" height="55" as="geometry" />
        </mxCell>
        <mxCell id="at9RbOZ54mhqnbz547Yu-214" value="" style="endArrow=none;html=1;sketch=1;" parent="at9RbOZ54mhqnbz547Yu-213" edge="1">
          <mxGeometry width="50" height="50" relative="1" as="geometry">
            <mxPoint x="5" y="18" as="sourcePoint" />
            <mxPoint y="12" as="targetPoint" />
          </mxGeometry>
        </mxCell>
        <mxCell id="at9RbOZ54mhqnbz547Yu-215" value="" style="ellipse;whiteSpace=wrap;html=1;sketch=1;strokeColor=#000000;fillColor=none;aspect=fixed;" parent="at9RbOZ54mhqnbz547Yu-213" vertex="1">
          <mxGeometry x="4" width="15" height="15" as="geometry" />
        </mxCell>
        <mxCell id="at9RbOZ54mhqnbz547Yu-216" value="" style="endArrow=none;html=1;sketch=1;entryX=0.5;entryY=1;entryDx=0;entryDy=0;" parent="at9RbOZ54mhqnbz547Yu-213" target="at9RbOZ54mhqnbz547Yu-215" edge="1">
          <mxGeometry x="12" y="210" width="50" height="50" as="geometry">
            <mxPoint x="12" y="20" as="sourcePoint" />
            <mxPoint x="54" y="60" as="targetPoint" />
          </mxGeometry>
        </mxCell>
        <mxCell id="at9RbOZ54mhqnbz547Yu-217" value="" style="endArrow=none;html=1;sketch=1;" parent="at9RbOZ54mhqnbz547Yu-213" edge="1">
          <mxGeometry x="12" y="210" width="50" height="50" as="geometry">
            <mxPoint x="12" y="36" as="sourcePoint" />
            <mxPoint x="12" y="20" as="targetPoint" />
          </mxGeometry>
        </mxCell>
        <mxCell id="at9RbOZ54mhqnbz547Yu-218" value="" style="endArrow=none;html=1;sketch=1;" parent="at9RbOZ54mhqnbz547Yu-213" edge="1">
          <mxGeometry x="12" y="210" width="50" height="50" as="geometry">
            <mxPoint x="19" y="46" as="sourcePoint" />
            <mxPoint x="12" y="37" as="targetPoint" />
          </mxGeometry>
        </mxCell>
        <mxCell id="at9RbOZ54mhqnbz547Yu-219" value="" style="endArrow=none;html=1;sketch=1;" parent="at9RbOZ54mhqnbz547Yu-213" edge="1">
          <mxGeometry x="12" y="210" width="50" height="50" as="geometry">
            <mxPoint x="8" y="46" as="sourcePoint" />
            <mxPoint x="11" y="37" as="targetPoint" />
          </mxGeometry>
        </mxCell>
        <mxCell id="at9RbOZ54mhqnbz547Yu-220" value="" style="endArrow=none;html=1;sketch=1;" parent="at9RbOZ54mhqnbz547Yu-213" edge="1">
          <mxGeometry x="12" y="210" width="50" height="50" as="geometry">
            <mxPoint x="20" y="19" as="sourcePoint" />
            <mxPoint x="13" y="20" as="targetPoint" />
          </mxGeometry>
        </mxCell>
        <mxCell id="at9RbOZ54mhqnbz547Yu-221" value="" style="endArrow=none;html=1;sketch=1;" parent="at9RbOZ54mhqnbz547Yu-213" edge="1">
          <mxGeometry x="12" y="210" width="50" height="50" as="geometry">
            <mxPoint x="5" y="18" as="sourcePoint" />
            <mxPoint x="12" y="21" as="targetPoint" />
          </mxGeometry>
        </mxCell>
        <mxCell id="at9RbOZ54mhqnbz547Yu-222" value="" style="endArrow=none;html=1;sketch=1;" parent="at9RbOZ54mhqnbz547Yu-213" edge="1">
          <mxGeometry x="12" y="210" width="50" height="50" as="geometry">
            <mxPoint x="5" y="55" as="sourcePoint" />
            <mxPoint x="8" y="46" as="targetPoint" />
          </mxGeometry>
        </mxCell>
        <mxCell id="at9RbOZ54mhqnbz547Yu-223" value="" style="endArrow=none;html=1;sketch=1;" parent="at9RbOZ54mhqnbz547Yu-213" edge="1">
          <mxGeometry x="12" y="210" width="50" height="50" as="geometry">
            <mxPoint x="22" y="55" as="sourcePoint" />
            <mxPoint x="19" y="46" as="targetPoint" />
          </mxGeometry>
        </mxCell>
        <mxCell id="at9RbOZ54mhqnbz547Yu-224" value="" style="endArrow=none;html=1;sketch=1;" parent="at9RbOZ54mhqnbz547Yu-213" edge="1">
          <mxGeometry x="12" y="210" width="50" height="50" as="geometry">
            <mxPoint x="20" y="18" as="sourcePoint" />
            <mxPoint x="22" y="11" as="targetPoint" />
          </mxGeometry>
        </mxCell>
        <mxCell id="at9RbOZ54mhqnbz547Yu-225" value="" style="group" parent="1" vertex="1" connectable="0">
          <mxGeometry x="68" y="210" width="23" height="55" as="geometry" />
        </mxCell>
        <mxCell id="at9RbOZ54mhqnbz547Yu-226" value="" style="endArrow=none;html=1;sketch=1;" parent="at9RbOZ54mhqnbz547Yu-225" edge="1">
          <mxGeometry width="50" height="50" relative="1" as="geometry">
            <mxPoint x="5" y="18" as="sourcePoint" />
            <mxPoint y="12" as="targetPoint" />
          </mxGeometry>
        </mxCell>
        <mxCell id="at9RbOZ54mhqnbz547Yu-227" value="" style="ellipse;whiteSpace=wrap;html=1;sketch=1;strokeColor=#000000;fillColor=none;aspect=fixed;" parent="at9RbOZ54mhqnbz547Yu-225" vertex="1">
          <mxGeometry x="4" width="15" height="15" as="geometry" />
        </mxCell>
        <mxCell id="at9RbOZ54mhqnbz547Yu-228" value="" style="endArrow=none;html=1;sketch=1;entryX=0.5;entryY=1;entryDx=0;entryDy=0;" parent="at9RbOZ54mhqnbz547Yu-225" target="at9RbOZ54mhqnbz547Yu-227" edge="1">
          <mxGeometry x="12" y="210" width="50" height="50" as="geometry">
            <mxPoint x="12" y="20" as="sourcePoint" />
            <mxPoint x="54" y="60" as="targetPoint" />
          </mxGeometry>
        </mxCell>
        <mxCell id="at9RbOZ54mhqnbz547Yu-229" value="" style="endArrow=none;html=1;sketch=1;" parent="at9RbOZ54mhqnbz547Yu-225" edge="1">
          <mxGeometry x="12" y="210" width="50" height="50" as="geometry">
            <mxPoint x="12" y="36" as="sourcePoint" />
            <mxPoint x="12" y="20" as="targetPoint" />
          </mxGeometry>
        </mxCell>
        <mxCell id="at9RbOZ54mhqnbz547Yu-230" value="" style="endArrow=none;html=1;sketch=1;" parent="at9RbOZ54mhqnbz547Yu-225" edge="1">
          <mxGeometry x="12" y="210" width="50" height="50" as="geometry">
            <mxPoint x="19" y="46" as="sourcePoint" />
            <mxPoint x="12" y="37" as="targetPoint" />
          </mxGeometry>
        </mxCell>
        <mxCell id="at9RbOZ54mhqnbz547Yu-231" value="" style="endArrow=none;html=1;sketch=1;" parent="at9RbOZ54mhqnbz547Yu-225" edge="1">
          <mxGeometry x="12" y="210" width="50" height="50" as="geometry">
            <mxPoint x="8" y="46" as="sourcePoint" />
            <mxPoint x="11" y="37" as="targetPoint" />
          </mxGeometry>
        </mxCell>
        <mxCell id="at9RbOZ54mhqnbz547Yu-232" value="" style="endArrow=none;html=1;sketch=1;" parent="at9RbOZ54mhqnbz547Yu-225" edge="1">
          <mxGeometry x="12" y="210" width="50" height="50" as="geometry">
            <mxPoint x="20" y="19" as="sourcePoint" />
            <mxPoint x="13" y="20" as="targetPoint" />
          </mxGeometry>
        </mxCell>
        <mxCell id="at9RbOZ54mhqnbz547Yu-233" value="" style="endArrow=none;html=1;sketch=1;" parent="at9RbOZ54mhqnbz547Yu-225" edge="1">
          <mxGeometry x="12" y="210" width="50" height="50" as="geometry">
            <mxPoint x="5" y="18" as="sourcePoint" />
            <mxPoint x="12" y="21" as="targetPoint" />
          </mxGeometry>
        </mxCell>
        <mxCell id="at9RbOZ54mhqnbz547Yu-234" value="" style="endArrow=none;html=1;sketch=1;" parent="at9RbOZ54mhqnbz547Yu-225" edge="1">
          <mxGeometry x="12" y="210" width="50" height="50" as="geometry">
            <mxPoint x="5" y="55" as="sourcePoint" />
            <mxPoint x="8" y="46" as="targetPoint" />
          </mxGeometry>
        </mxCell>
        <mxCell id="at9RbOZ54mhqnbz547Yu-235" value="" style="endArrow=none;html=1;sketch=1;" parent="at9RbOZ54mhqnbz547Yu-225" edge="1">
          <mxGeometry x="12" y="210" width="50" height="50" as="geometry">
            <mxPoint x="22" y="55" as="sourcePoint" />
            <mxPoint x="19" y="46" as="targetPoint" />
          </mxGeometry>
        </mxCell>
        <mxCell id="at9RbOZ54mhqnbz547Yu-236" value="" style="endArrow=none;html=1;sketch=1;" parent="at9RbOZ54mhqnbz547Yu-225" edge="1">
          <mxGeometry x="12" y="210" width="50" height="50" as="geometry">
            <mxPoint x="20" y="18" as="sourcePoint" />
            <mxPoint x="22" y="11" as="targetPoint" />
          </mxGeometry>
        </mxCell>
        <mxCell id="at9RbOZ54mhqnbz547Yu-237" value="" style="group" parent="1" vertex="1" connectable="0">
          <mxGeometry x="98" y="210" width="23" height="55" as="geometry" />
        </mxCell>
        <mxCell id="at9RbOZ54mhqnbz547Yu-238" value="" style="endArrow=none;html=1;sketch=1;" parent="at9RbOZ54mhqnbz547Yu-237" edge="1">
          <mxGeometry width="50" height="50" relative="1" as="geometry">
            <mxPoint x="5" y="18" as="sourcePoint" />
            <mxPoint y="12" as="targetPoint" />
          </mxGeometry>
        </mxCell>
        <mxCell id="at9RbOZ54mhqnbz547Yu-239" value="" style="ellipse;whiteSpace=wrap;html=1;sketch=1;strokeColor=#000000;fillColor=none;aspect=fixed;" parent="at9RbOZ54mhqnbz547Yu-237" vertex="1">
          <mxGeometry x="4" width="15" height="15" as="geometry" />
        </mxCell>
        <mxCell id="at9RbOZ54mhqnbz547Yu-240" value="" style="endArrow=none;html=1;sketch=1;entryX=0.5;entryY=1;entryDx=0;entryDy=0;" parent="at9RbOZ54mhqnbz547Yu-237" target="at9RbOZ54mhqnbz547Yu-239" edge="1">
          <mxGeometry x="12" y="210" width="50" height="50" as="geometry">
            <mxPoint x="12" y="20" as="sourcePoint" />
            <mxPoint x="54" y="60" as="targetPoint" />
          </mxGeometry>
        </mxCell>
        <mxCell id="at9RbOZ54mhqnbz547Yu-241" value="" style="endArrow=none;html=1;sketch=1;" parent="at9RbOZ54mhqnbz547Yu-237" edge="1">
          <mxGeometry x="12" y="210" width="50" height="50" as="geometry">
            <mxPoint x="12" y="36" as="sourcePoint" />
            <mxPoint x="12" y="20" as="targetPoint" />
          </mxGeometry>
        </mxCell>
        <mxCell id="at9RbOZ54mhqnbz547Yu-242" value="" style="endArrow=none;html=1;sketch=1;" parent="at9RbOZ54mhqnbz547Yu-237" edge="1">
          <mxGeometry x="12" y="210" width="50" height="50" as="geometry">
            <mxPoint x="19" y="46" as="sourcePoint" />
            <mxPoint x="12" y="37" as="targetPoint" />
          </mxGeometry>
        </mxCell>
        <mxCell id="at9RbOZ54mhqnbz547Yu-243" value="" style="endArrow=none;html=1;sketch=1;" parent="at9RbOZ54mhqnbz547Yu-237" edge="1">
          <mxGeometry x="12" y="210" width="50" height="50" as="geometry">
            <mxPoint x="8" y="46" as="sourcePoint" />
            <mxPoint x="11" y="37" as="targetPoint" />
          </mxGeometry>
        </mxCell>
        <mxCell id="at9RbOZ54mhqnbz547Yu-244" value="" style="endArrow=none;html=1;sketch=1;" parent="at9RbOZ54mhqnbz547Yu-237" edge="1">
          <mxGeometry x="12" y="210" width="50" height="50" as="geometry">
            <mxPoint x="20" y="19" as="sourcePoint" />
            <mxPoint x="13" y="20" as="targetPoint" />
          </mxGeometry>
        </mxCell>
        <mxCell id="at9RbOZ54mhqnbz547Yu-245" value="" style="endArrow=none;html=1;sketch=1;" parent="at9RbOZ54mhqnbz547Yu-237" edge="1">
          <mxGeometry x="12" y="210" width="50" height="50" as="geometry">
            <mxPoint x="5" y="18" as="sourcePoint" />
            <mxPoint x="12" y="21" as="targetPoint" />
          </mxGeometry>
        </mxCell>
        <mxCell id="at9RbOZ54mhqnbz547Yu-246" value="" style="endArrow=none;html=1;sketch=1;" parent="at9RbOZ54mhqnbz547Yu-237" edge="1">
          <mxGeometry x="12" y="210" width="50" height="50" as="geometry">
            <mxPoint x="5" y="55" as="sourcePoint" />
            <mxPoint x="8" y="46" as="targetPoint" />
          </mxGeometry>
        </mxCell>
        <mxCell id="at9RbOZ54mhqnbz547Yu-247" value="" style="endArrow=none;html=1;sketch=1;" parent="at9RbOZ54mhqnbz547Yu-237" edge="1">
          <mxGeometry x="12" y="210" width="50" height="50" as="geometry">
            <mxPoint x="22" y="55" as="sourcePoint" />
            <mxPoint x="19" y="46" as="targetPoint" />
          </mxGeometry>
        </mxCell>
        <mxCell id="at9RbOZ54mhqnbz547Yu-248" value="" style="endArrow=none;html=1;sketch=1;" parent="at9RbOZ54mhqnbz547Yu-237" edge="1">
          <mxGeometry x="12" y="210" width="50" height="50" as="geometry">
            <mxPoint x="20" y="18" as="sourcePoint" />
            <mxPoint x="22" y="11" as="targetPoint" />
          </mxGeometry>
        </mxCell>
        <mxCell id="O0TSCw_yGLxYswrqsD9a-1" value="" style="rhombus;whiteSpace=wrap;html=1;fillColor=#f8cecc;strokeColor=#b85450;sketch=1;" parent="1" vertex="1">
          <mxGeometry x="237" y="11" width="40" height="30" as="geometry" />
        </mxCell>
        <mxCell id="O0TSCw_yGLxYswrqsD9a-2" value="" style="rounded=0;whiteSpace=wrap;html=1;fillColor=#647687;strokeColor=#314354;fontColor=#ffffff;sketch=1;" parent="1" vertex="1">
          <mxGeometry x="318.5" y="14.5" width="39" height="20" as="geometry" />
        </mxCell>
        <mxCell id="O0TSCw_yGLxYswrqsD9a-3" value="" style="rounded=0;whiteSpace=wrap;html=1;fillColor=#647687;strokeColor=#314354;fontColor=#ffffff;sketch=1;" parent="1" vertex="1">
          <mxGeometry x="352" y="166" width="266" height="70" as="geometry" />
        </mxCell>
        <mxCell id="O0TSCw_yGLxYswrqsD9a-4" value="" style="rounded=0;whiteSpace=wrap;html=1;fillColor=#647687;strokeColor=#314354;fontColor=#ffffff;sketch=1;" parent="1" vertex="1">
          <mxGeometry x="676" y="174.5" width="66" height="40" as="geometry" />
        </mxCell>
        <mxCell id="O0TSCw_yGLxYswrqsD9a-5" value="" style="shape=mxgraph.signs.nature.sun_3;html=1;pointerEvents=1;fillColor=#f8cecc;strokeColor=#b85450;verticalLabelPosition=bottom;verticalAlign=top;align=center;rotation=-5;sketch=1;" parent="1" vertex="1">
          <mxGeometry x="234" y="66" width="47" height="47" as="geometry" />
        </mxCell>
        <mxCell id="O0TSCw_yGLxYswrqsD9a-6" value="" style="rounded=0;whiteSpace=wrap;html=1;fillColor=#d5e8d4;strokeColor=#82b366;sketch=1;" parent="1" vertex="1">
          <mxGeometry x="318" y="58" width="76" height="10" as="geometry" />
        </mxCell>
        <mxCell id="O0TSCw_yGLxYswrqsD9a-7" value="" style="endArrow=classic;startArrow=classic;html=1;sketch=1;" parent="1" edge="1">
          <mxGeometry width="50" height="50" relative="1" as="geometry">
            <mxPoint x="863.29" y="50" as="sourcePoint" />
            <mxPoint x="863" y="220" as="targetPoint" />
          </mxGeometry>
        </mxCell>
        <mxCell id="O0TSCw_yGLxYswrqsD9a-8" value="" style="endArrow=classic;startArrow=classic;html=1;sketch=1;" parent="1" edge="1">
          <mxGeometry width="50" height="50" relative="1" as="geometry">
            <mxPoint x="151" y="281.00000000000045" as="sourcePoint" />
            <mxPoint x="319" y="282.28999999999996" as="targetPoint" />
          </mxGeometry>
        </mxCell>
        <mxCell id="O0TSCw_yGLxYswrqsD9a-9" value="" style="rounded=0;whiteSpace=wrap;html=1;fillColor=#647687;strokeColor=#314354;fontColor=#ffffff;sketch=1;" parent="1" vertex="1">
          <mxGeometry x="890" y="20" width="83" height="224" as="geometry" />
        </mxCell>
        <mxCell id="O0TSCw_yGLxYswrqsD9a-10" value="" style="rounded=0;whiteSpace=wrap;html=1;fillColor=#647687;strokeColor=#314354;fontColor=#ffffff;sketch=1;" parent="1" vertex="1">
          <mxGeometry x="351" y="272" width="630.75" height="20" as="geometry" />
        </mxCell>
        <mxCell id="O0TSCw_yGLxYswrqsD9a-11" value="" style="rounded=0;whiteSpace=wrap;html=1;fillColor=#647687;strokeColor=#314354;fontColor=#ffffff;sketch=1;" parent="1" vertex="1">
          <mxGeometry x="1156" y="327" width="24" height="424" as="geometry" />
        </mxCell>
        <mxCell id="O0TSCw_yGLxYswrqsD9a-12" value="" style="rounded=0;whiteSpace=wrap;html=1;fillColor=none;sketch=1;" parent="1" vertex="1">
          <mxGeometry x="21" y="324" width="960" height="600" as="geometry" />
        </mxCell>
        <mxCell id="O0TSCw_yGLxYswrqsD9a-13" value="" style="ellipse;shape=cloud;whiteSpace=wrap;html=1;sketch=1;fillStyle=hachure;fillColor=#DBDBDB;" parent="1" vertex="1">
          <mxGeometry x="1002" y="490" width="120" height="80" as="geometry" />
        </mxCell>
        <mxCell id="O0TSCw_yGLxYswrqsD9a-14" value="" style="ellipse;shape=cloud;whiteSpace=wrap;html=1;sketch=1;fillStyle=hachure;fillColor=#DBDBDB;" parent="1" vertex="1">
          <mxGeometry x="1002" y="574.5" width="120" height="80" as="geometry" />
        </mxCell>
        <mxCell id="O0TSCw_yGLxYswrqsD9a-15" value="" style="ellipse;shape=cloud;whiteSpace=wrap;html=1;sketch=1;fillStyle=hachure;fillColor=#DBDBDB;" parent="1" vertex="1">
          <mxGeometry x="1002" y="664.5" width="120" height="80" as="geometry" />
        </mxCell>
        <mxCell id="O0TSCw_yGLxYswrqsD9a-16" value="" style="ellipse;shape=cloud;whiteSpace=wrap;html=1;sketch=1;fillStyle=hachure;fillColor=#DBDBDB;" parent="1" vertex="1">
          <mxGeometry x="1002" y="324" width="120" height="80" as="geometry" />
        </mxCell>
        <mxCell id="O0TSCw_yGLxYswrqsD9a-17" value="" style="ellipse;shape=cloud;whiteSpace=wrap;html=1;sketch=1;fillStyle=hachure;fillColor=#DBDBDB;" parent="1" vertex="1">
          <mxGeometry x="1002" y="407.38" width="120" height="80" as="geometry" />
        </mxCell>
        <mxCell id="JTiLmyJ_T-dYryw_k1Rh-1" value="" style="shape=image;aspect=fixed;image=data:image/svg+xml,PD94bWwgdmVyc2lvbj0iMS4wIiBlbmNvZGluZz0iVVRGLTgiPz4KPCFET0NUWVBFIHN2ZyBQVUJMSUMgIi0vL1czQy8vRFREIFNWRyAxLjEvL0VOIiAiaHR0cDovL3d3dy53My5vcmcvR3JhcGhpY3MvU1ZHLzEuMS9EVEQvc3ZnMTEuZHRkIj4KPHN2ZyB4bWxucz0iaHR0cDovL3d3dy53My5vcmcvMjAwMC9zdmciIHhtbG5zOnhsaW5rPSJodHRwOi8vd3d3LnczLm9yZy8xOTk5L3hsaW5rIiB2ZXJzaW9uPSIxLjEiIHdpZHRoPSI2MXB4IiBoZWlnaHQ9IjE5MXB4IiB2aWV3Qm94PSItMC41IC0wLjUgNjEgMTkxIj48ZGVmcy8+PGc+PHBhdGggZD0iTSAwIDAgTCA2MCAzNSBMIDAgNzAgWiIgZmlsbD0ibm9uZSIgc3Ryb2tlPSJub25lIiBwb2ludGVyLWV2ZW50cz0iYWxsIi8+PHBhdGggZD0iTSAwIDAgQyAwIDAgMCAwIDAgMCBNIDAgMCBDIDAgMCAwIDAgMCAwIE0gLTAuNjMgNi44OSBDIDEuMyA0LjYzIDIuMDYgMi45NSAzLjYxIDEuMyBNIC0wLjUgNi42MSBDIDEgNS4wMyAyLjM0IDMuNjQgMy43MiAyLjEgTSAwLjM5IDExLjU3IEMgMS4zNCAxMS4wNyAyLjExIDguOTMgNi43NSAzLjYzIE0gLTAuMjIgMTEuNTYgQyAxLjM3IDkuNjMgMy44IDcuMzYgNy41OCA0LjIxIE0gMC41MiAxOS4xNCBDIDEuMTggMTQuMjQgMy4yMSAxMy4xIDkuMDIgNy44OSBNIC0wLjkyIDE5LjEyIEMgMy43NCAxNC43NyA1Ljk4IDEwLjMzIDkuODggNS42OCBNIDEuMSAyNC40NiBDIDIuOTggMTkuMzEgOS41NyAxNi4xNCAxMi42MSA5LjYyIE0gMC40NyAyNC4zNiBDIDQuMjcgMjAuMTcgNy4yMyAxNy41NSAxNC4yNCA4Ljc2IE0gLTAuNTcgMzEuNzkgQyA0LjIzIDI1LjA5IDEyLjU1IDE2Ljk1IDE4LjQ4IDguNiBNIDAuNDEgMjkuOTYgQyA1LjQzIDI0LjY2IDEwLjQ4IDE3LjY1IDE3LjcxIDExLjAyIE0gMS43NCAzNy41IEMgOC41MyAyOS45MSAxMS45MiAyMS44MiAyMC43MiAxMi4wNyBNIC0wLjEyIDM3LjQgQyA0LjU2IDMxLjk1IDkuNjkgMjUuMjMgMjEgMTEuNjMgTSAxLjQzIDQyLjM4IEMgNC44OSAzNy44NSAxMS44NCAzMS40MiAyMy4xNiAxMy40MyBNIDAuNjkgNDIuNCBDIDYuNzMgMzQuNDUgMTQuMTggMjYuODcgMjMuNTUgMTQuNDMgTSAtMi4wNCA0OS4yOSBDIDcuODYgMzkuOTcgMTUuNjggMzAuNjMgMjYuMzYgMTYuOTMgTSAtMS4wMSA0OS43NSBDIDUuMDkgNDIuNTkgMTEuOTIgMzQuMTIgMjcuNzIgMTcuMTcgTSAyLjI0IDUzLjEzIEMgMTMuMTEgNDMuNjcgMjIuODcgMjcuMzkgMzIuNTIgMTcuMzYgTSAtMC41NCA1NC4zMyBDIDkuNzIgNDUuNTEgMTcuNDcgMzUuOTUgMzIuMzggMTguMzkgTSAwLjEgNjIuMTcgQyAxMi42MyA0NS4zMyAyNi43IDMyLjY0IDM2Ljc2IDIwLjM3IE0gLTAuMzIgNjEuNiBDIDguMjggNTIuMDcgMTUuNDEgNDIuNTEgMzUuMjYgMjAuNzggTSAxLjYzIDY3Ljk2IEMgMTIuMTcgNTIuNTcgMjYuOTEgMzUuNDQgMzguNjIgMjMuMTQgTSAwLjM2IDY2LjY1IEMgMTUuMDEgNTEuMTggMjkuNzMgMzQuNDQgMzkuMjEgMjMuMDQgTSAxLjMyIDczLjM3IEMgMTAuNTYgNjAuMjQgMjIuMTMgNDcuMDIgNDEuNDEgMjYuNjggTSAyLjMzIDcxLjMzIEMgMTMuNDcgNTguNDMgMjMuNjUgNDUuNTMgNDIuNDQgMjUuMyBNIDEwLjY5IDYzLjMgQyAyMi44OSA1My4yNSAyOC45NyA0NS43MiA0NS4wMiAyNy41OSBNIDEyLjA0IDY0LjEgQyAyMS41MiA1NC42MiAzMy4yMyA0MS43NiA0Ni4yNCAyNS45MyBNIDIxLjQgNTYuODUgQyAyOS40NCA1My4xNiAzNS42NCA0NC44MSA0OS4zIDMwLjI4IE0gMjMuNjIgNTkuMzQgQyAzMS4wMSA0OS41NyAzOC4yOSA0MC42NCA0OS4yMyAyOSBNIDM1LjY0IDUzLjExIEMgNDAuODEgNDUuNDkgNDcuOTUgMzcuOTggNTMuNSAzMS43MiBNIDMzLjk5IDUyLjI0IEMgMzggNDcuNTIgNDIuNzMgNDEuNzkgNTEuNjMgMzAuMDcgTSA0NC45IDQ1LjgyIEMgNDcuMDYgNDIuOSA1Mi4xOCAzNy44MSA1NS43MiAzMy42MyBNIDQ0LjcxIDQ2LjUzIEMgNDcuNjUgNDIuODMgNDkuNzggNDAuMiA1NS42MyAzMy41NCBNIDU0LjcxIDM5Ljc5IEMgNTYuMDYgMzguNDIgNTcuODYgMzcuNTMgNjAuMzkgMzQuNzMgTSA1NC45NCA0MCBDIDU2Ljc2IDM4LjM3IDU4LjU0IDM2LjE0IDYwLjE1IDM0LjQ3IiBmaWxsPSJub25lIiBzdHJva2U9IiNkNWU4ZDQiIHN0cm9rZS1saW5lam9pbj0icm91bmQiIHN0cm9rZS1saW5lY2FwPSJyb3VuZCIgc3Ryb2tlLW1pdGVybGltaXQ9IjEwIiBwb2ludGVyLWV2ZW50cz0iYWxsIi8+PHBhdGggZD0iTSAyIC0xLjU3IE0gMC42NSAtMC41MyBDIDE5LjIxIDEyLjQ0IDQwLjUgMjQuODYgNTguNjYgMzQuNjIgTSAwLjc5IC0wLjU5IEMgMTYuNDkgOC44OCAzMi4xOCAxOC40MiA1OS42IDM1Ljc5IE0gNjEuMDQgMzYuNzIgQyA0MS44NiA0NC43NSAyNS4zNiA1Ni43IDEuOTIgNjkuODMgTSA2MC4xNiAzNS4wNSBDIDQ3LjU4IDQxLjc1IDM1LjA3IDQ5LjYzIDAuMDEgNzAuMTggTSAtMS4xMyA2OS4yMiBDIDAuNjIgNTAuOTIgLTEuNDEgMzQuNzIgMS4zOCAtMC4xIE0gMC43IDcwIEMgLTAuMDMgNDguODcgLTAuNjUgMzAuMDkgMC41MSAtMC42OCIgZmlsbD0ibm9uZSIgc3Ryb2tlPSIjODJiMzY2IiBzdHJva2UtbGluZWpvaW49InJvdW5kIiBzdHJva2UtbGluZWNhcD0icm91bmQiIHN0cm9rZS1taXRlcmxpbWl0PSIxMCIgcG9pbnRlci1ldmVudHM9ImFsbCIvPjxyZWN0IHg9IjAiIHk9IjAiIHdpZHRoPSIxMCIgaGVpZ2h0PSIxOTAiIGZpbGw9Im5vbmUiIHN0cm9rZT0ibm9uZSIgcG9pbnRlci1ldmVudHM9ImFsbCIvPjxwYXRoIGQ9Ik0gLTAuMjYgMC4zIEMgLTAuMjYgMC4zIC0wLjI2IDAuMyAtMC4yNiAwLjMgTSAtMC4yNiAwLjMgQyAtMC4yNiAwLjMgLTAuMjYgMC4zIC0wLjI2IDAuMyBNIDAuODEgNS44MSBDIDIuMjEgMy45NSAzLjM1IDIuOTQgNC45NiAwLjY0IE0gMC40NSA1Ljg3IEMgMS42NSA0LjA1IDMuNDYgMS45OCA1LjY5IC0wLjE3IE0gLTEuMjIgMTMuMTYgQyA0LjM0IDcuOTIgNy4zNyA0LjYyIDkuMDggLTAuNzMgTSAtMC4xMiAxMi43OSBDIDQuMDIgOS4wOSA2LjI1IDQuOTggMTEuMDcgMC4xMiBNIDAuOSAxNy4wNiBDIDIuNjEgMTQuOTQgOC41NCA5LjM4IDkuODMgNS44NyBNIDEgMTguMzUgQyA0LjQyIDEzLjkgOC4yOCA5LjY0IDEwLjcxIDcuMDggTSAwLjU1IDI0LjAzIEMgMi45IDE4Ljc3IDYuMjQgMTUuMzMgMTEuOTIgMTMuMjkgTSAtMC42OSAyNC44MSBDIDEuNzkgMjIuMjQgNC44OCAxOS4zMiAxMC4zOSAxMS44MiBNIC0xLjM0IDMxLjMyIEMgMS45IDI2LjEgNi4yIDIzLjIyIDExLjUyIDE3LjQ5IE0gLTAuNTIgMzAuOTkgQyAzLjM0IDI1LjE5IDcuNDIgMjEuMTcgMTAuMTIgMTcuOTcgTSAtMS4xOSAzNi4yOSBDIDMuNjMgMzIuNDIgNi4zMSAyNy4yMyA5LjUxIDI1LjU2IE0gLTAuMTYgMzUuOTEgQyAzLjczIDMxLjM1IDguMzUgMjYuNTUgMTAuNzIgMjQuNjIgTSAtMC40MyA0Mi4yMSBDIDEuOTIgNDAuMTggNi41MyAzNS4wNCAxMS45NiAzMS41NCBNIDAuNDkgNDIuOTkgQyA0LjA3IDM4LjEgNy40MyAzMi41MiA5LjkgMzAuMTYgTSAxLjQ2IDQ4LjA3IEMgMS43NyA0Ny4xNCA2LjIyIDQ0LjQ0IDEwLjAzIDM2LjcyIE0gLTAuMDUgNDcuOTkgQyA0LjQ3IDQ0LjE3IDcuNDYgMzkuMDkgMTAuODUgMzcuMTYgTSAtMC4yNCA1NC40MSBDIDMuNDEgNTAuOTEgMi45NyA0OS4zNCA5LjEzIDQzLjY3IE0gMC4xOCA1NC45NyBDIDIuNDMgNTEuNjkgMy44NCA0OS43OCAxMC45MSA0Mi45NCBNIDAuMzggNTkuODcgQyAzLjI2IDU3LjY5IDUuMDMgNTIuNCA4Ljc1IDQ5LjEzIE0gMC4xOSA2MS4zMiBDIDMuNjIgNTcuNiA2LjggNTQuODcgMTEuMDIgNDguNzcgTSAwLjMgNjYuMzUgQyAxLjMxIDY1LjI2IDMuNzggNjIuMjkgOS4zNiA1Ni4wNSBNIC0wLjYzIDY2LjU0IEMgMy4zMSA2Mi44IDYuODEgNTkuMDUgMTEuMjQgNTQuMTMgTSAwLjQ4IDczLjMzIEMgMi40OSA3MS4wNSA4LjA4IDY2LjIyIDExLjMyIDYwLjQ0IE0gMC40NiA3Mi42NiBDIDMuMjEgNzAuMzggNS44NiA2Ny40NCAxMC44IDYxLjYyIE0gMS42OCA3OC45NCBDIDQuMzEgNzYuMTEgNy4xNSA3MC45NiA5LjExIDY2Ljk0IE0gMC40NiA3OS40IEMgMi4wNCA3Ni4xMyA0Ljc3IDc0LjQzIDkuNTYgNjguMDUgTSAtMS4wNyA4NC4zMiBDIDQuNjIgODAuNDEgNy4zIDc2LjAxIDkuMTUgNzQuNzEgTSAtMC4xNyA4NS4wOCBDIDIuNjYgODIuMzYgNS42MiA3OS44OSA5Ljg2IDczLjY4IE0gLTEuMTYgOTEuNTMgQyAyLjU0IDg3LjU5IDguMTcgODMuNTQgMTEuNjggNzguNjEgTSAtMC4yNyA5MS4xMyBDIDEuODMgODkuODIgNC4zIDg3LjI2IDEwLjAzIDc5LjAzIE0gLTEuMzggOTcuNjkgQyAxLjMzIDk1LjM2IDUuNzYgOTIuODYgOS4xOCA4NS43MSBNIDAuMTIgOTcuODcgQyAzLjg5IDkyLjk5IDcuODEgODguNTcgMTEuMDcgODUuMDkgTSAwLjQ2IDEwMy42NyBDIDQuNDIgOTguOTUgNi4xMSA5Ni4wNCA5LjUgOTEuMTcgTSAwLjE1IDEwMy44MiBDIDQuNzcgOTkuMjcgNy43MyA5NC4wNSA5Ljg5IDkyLjQ1IE0gLTAuNDIgMTEwLjI2IEMgMy41NCAxMDcuOTkgMy42MSAxMDMuMzIgOS4yOCA5OC40MSBNIC0wLjQxIDEwOS42OCBDIDQuNDQgMTA1LjEzIDcuNjEgMTAwLjk0IDkuNTIgOTguMDggTSAtMS4yNiAxMTQuODYgQyAzLjgyIDExMS4yMyA2LjQyIDEwNi45NSAxMC4xNSAxMDMuODQgTSAwLjQ1IDExNS4yOSBDIDMuNjEgMTExLjUzIDYuODQgMTA4LjQ4IDEwLjUxIDEwMy42MSBNIC0wLjIzIDEyMy4xNiBDIDQuNjkgMTE3LjM3IDUuMjIgMTEzLjcgMTEuNzggMTExLjY4IE0gLTAuNjkgMTIxLjc1IEMgMy4zMiAxMTkuMTIgNi4yNyAxMTQuOTEgMTAuMTMgMTEwLjAxIE0gLTEuMjMgMTI2LjMyIEMgNS4xOCAxMjMuMTYgNi42NSAxMTguNTkgMTEuOTcgMTE0LjM5IE0gMCAxMjcuOTUgQyAzLjkgMTIzLjA3IDguMSAxMTkuMjQgMTEuMzUgMTE1LjE2IE0gLTAuMzMgMTMzLjM0IEMgMi40MiAxMzMuMTIgMy41MiAxMjkuODYgOC45MSAxMjEgTSAwLjY2IDEzMy45MSBDIDMuNjUgMTMwLjQzIDcuMzggMTI1LjM3IDEwLjU1IDEyMS44NiBNIDAuMzYgMTQwLjEyIEMgMi40NCAxMzUuNzggNS4xNCAxMzMuODQgMTEuMzEgMTI3LjgzIE0gMC42MSAxMzkuMjIgQyAyLjk0IDEzNS43MyA1Ljk4IDEzMi45OSAxMC4wNiAxMjkuMDIgTSAtMC40MyAxNDYuNzUgQyA1LjI3IDE0Mi41MiA4LjkyIDEzNS45NyAxMi4wNSAxMzMuMjYgTSAwLjA2IDE0Ni44NyBDIDEuODggMTQ0LjYyIDMuNTggMTQwLjc5IDEwLjU2IDEzNC40MSBNIC0wLjk5IDE1Mi4wMiBDIDEuMTIgMTUwLjUyIDQuODcgMTQ2Ljc4IDEwLjMyIDE0Mi4wMiBNIDAuMzYgMTUyLjQ0IEMgMy4xOSAxNDguNTcgNi43OSAxNDMuMiAxMC42OCAxNDEuMTMgTSAwLjc2IDE1Ny4zOSBDIDEuMzkgMTU2LjIzIDYuNjEgMTUyLjcyIDExLjM4IDE0Ni41OSBNIDAuNzEgMTU4LjM1IEMgMy4zOCAxNTQgNy4zNCAxNDguNzEgMTAuNzkgMTQ2LjYgTSAtMC4zMSAxNjUuOTIgQyAxLjgxIDE2Mi41NiA1Ljc4IDE1OS40IDEwLjY0IDE1NC4yMyBNIC0wLjAxIDE2My45NSBDIDMuNjUgMTYwLjIgNy41MiAxNTUuNTggMTAuOTEgMTUyLjkgTSAwLjEgMTY5LjAzIEMgMi40NyAxNjguNjIgNC4yNyAxNjUgOC44MSAxNTkuMTcgTSAtMC4xNSAxNzAuOTkgQyAzLjA2IDE2Ny4wNiA0LjMyIDE2NC45IDkuNzEgMTU4LjcyIE0gLTEuNDcgMTc3LjY5IEMgMy40NSAxNzUuMDMgNi42NyAxNzEuNjMgMTEuOTkgMTY1LjY3IE0gMC4wMSAxNzcuNSBDIDMuODMgMTczLjE0IDcuMDggMTY4LjU0IDEwLjM4IDE2NC40MyBNIDAuNDQgMTg0LjMxIEMgMi44NSAxNzguOTkgNi45OSAxNzYuODUgOS4wMSAxNzAuOTggTSAtMC4wMSAxODIuOSBDIDMuMDkgMTc5LjIyIDUuODQgMTc0LjcyIDEwLjA5IDE3MS42NyBNIC0wLjE1IDE4OS43MyBDIDMuODMgMTgyLjkyIDkuMDcgMTgwLjc1IDkuNTcgMTc3LjY3IE0gMC43OSAxODkuNTIgQyAzLjY4IDE4NC43MiA3LjMgMTgwLjY4IDEwLjcyIDE3NS45NyBNIDEuODYgMTkxLjc1IEMgNS42NCAxOTAuMTMgNi41OCAxODcuMzYgMTEuMjQgMTgzLjQ1IE0gMi40OCAxOTEuNzggQyA0LjEzIDE4OS44NCA2LjY4IDE4Ny4zNyA5Ljg4IDE4Mi45NSBNIDcuNzEgMTkyLjQ3IEMgOC45MiAxOTEuMjQgOS42NCAxODkuOTkgMTAuMzUgMTg5Ljg1IE0gNy4zMiAxOTIuNCBDIDguMjkgMTkxLjY4IDkuMTIgMTkxLjA0IDkuOTQgMTg5LjU0IiBmaWxsPSJub25lIiBzdHJva2U9IiNkNWU4ZDQiIHN0cm9rZS1saW5lam9pbj0icm91bmQiIHN0cm9rZS1saW5lY2FwPSJyb3VuZCIgc3Ryb2tlLW1pdGVybGltaXQ9IjEwIiBwb2ludGVyLWV2ZW50cz0iYWxsIi8+PHBhdGggZD0iTSAtMC43MyAwLjI3IEMgMi42MyAtMC4wMiA0LjI5IC0wLjU3IDEwLjcxIC0wLjg0IE0gMC4yOSAtMC4xMiBDIDQuMzkgLTAuMjMgOC4wNSAwLjM4IDEwLjEzIDAuMTggTSA4LjMxIDEuODggQyA5LjA1IDY1LjA5IDcuODggMTMyLjUxIDkuMTkgMTg5LjIzIE0gMTAuNDkgMC45MSBDIDcuOTcgNjguMzcgNy42MyAxMzcuNDEgOS41NCAxOTAuMTEgTSA5Ljc2IDE5MC40NyBDIDcuMDMgMTg5LjU4IDQuODEgMTkwLjkyIC0wLjYyIDE5MC43IE0gOS43MSAxODkuOTkgQyA3LjczIDE5MC4zIDUuNSAxODkuOTggMC4xOCAxODkuOTUgTSAtMS45MSAxODguNTkgQyAtMS4xMSAxMzEuMzggMC45IDczLjc0IDAuOTEgLTEuMjkgTSAwLjIzIDE5MC44NSBDIC0wLjMyIDEzOS4wMiAtMS4wNCA4Ni40OSAwLjgzIC0wLjg3IiBmaWxsPSJub25lIiBzdHJva2U9IiM4MmIzNjYiIHN0cm9rZS1saW5lam9pbj0icm91bmQiIHN0cm9rZS1saW5lY2FwPSJyb3VuZCIgc3Ryb2tlLW1pdGVybGltaXQ9IjEwIiBwb2ludGVyLWV2ZW50cz0iYWxsIi8+PC9nPjwvc3ZnPg==;" parent="1" vertex="1">
          <mxGeometry x="780" y="33" width="61" height="191" as="geometry" />
        </mxCell>
        <mxCell id="CjPWlSX42iUkjOLnjioo-1" value="" style="shape=image;aspect=fixed;image=data:image/svg+xml,PD94bWwgdmVyc2lvbj0iMS4wIiBlbmNvZGluZz0iVVRGLTgiPz4KPCFET0NUWVBFIHN2ZyBQVUJMSUMgIi0vL1czQy8vRFREIFNWRyAxLjEvL0VOIiAiaHR0cDovL3d3dy53My5vcmcvR3JhcGhpY3MvU1ZHLzEuMS9EVEQvc3ZnMTEuZHRkIj4KPHN2ZyB4bWxucz0iaHR0cDovL3d3dy53My5vcmcvMjAwMC9zdmciIHhtbG5zOnhsaW5rPSJodHRwOi8vd3d3LnczLm9yZy8xOTk5L3hsaW5rIiB2ZXJzaW9uPSIxLjEiIHdpZHRoPSI0N3B4IiBoZWlnaHQ9IjE1MnB4IiB2aWV3Qm94PSItMC41IC0wLjUgNDcgMTUyIj48ZGVmcy8+PGc+PHBhdGggZD0iTSAtNTIuNSA2Ny41IEMgLTUyLjUgNTkuMjIgLTE4LjkyIDUyLjUgMjIuNSA1Mi41IEMgNDIuMzkgNTIuNSA2MS40NyA1NC4wOCA3NS41MyA1Ni44OSBDIDg5LjYgNTkuNzEgOTcuNSA2My41MiA5Ny41IDY3LjUgTCA5Ny41IDgyLjUgQyA5Ny41IDkwLjc4IDYzLjkyIDk3LjUgMjIuNSA5Ny41IEMgLTE4LjkyIDk3LjUgLTUyLjUgOTAuNzggLTUyLjUgODIuNSBaIiBmaWxsPSJub25lIiBzdHJva2U9Im5vbmUiIHRyYW5zZm9ybT0icm90YXRlKC05MCwyMi41LDc1KSIgcG9pbnRlci1ldmVudHM9ImFsbCIvPjxwYXRoIGQ9Ik0gOTcuNSA2Ny41IEMgOTcuNSA3NS43OCA2My45MiA4Mi41IDIyLjUgODIuNSBDIC0xOC45MiA4Mi41IC01Mi41IDc1Ljc4IC01Mi41IDY3LjUiIGZpbGw9Im5vbmUiIHN0cm9rZT0ibm9uZSIgdHJhbnNmb3JtPSJyb3RhdGUoLTkwLDIyLjUsNzUpIiBwb2ludGVyLWV2ZW50cz0iYWxsIi8+PHBhdGggZD0iTSAtNTAuOTUgNjQuNDUgQyAtNTAuOTUgNjQuNDUgLTUwLjk1IDY0LjQ1IC01MC45NSA2NC40NSBNIC01MC45NSA2NC40NSBDIC01MC45NSA2NC40NSAtNTAuOTUgNjQuNDUgLTUwLjk1IDY0LjQ1IE0gLTUwLjYyIDY5LjIzIEMgLTQ4LjUxIDY3LjIgLTQ2LjIyIDY2IC00MS42MyA2MS44IE0gLTQ5Ljc2IDY5LjcxIEMgLTQ4LjI0IDY3LjMgLTQ1LjQ1IDY0LjEzIC00Mi44OCA2MS4yNCBNIC00OS42NCA3NS42IEMgLTQ2LjcyIDcyLjc0IC00My4xOSA3MC4zMiAtMzYuNzcgNjEuMDggTSAtNTAuODggNzYuNDkgQyAtNDUuMyA2OS4yOSAtMzkuOTQgNjQuMzMgLTM2LjggNTkuMDggTSAtNTEuODEgODQuOTggQyAtNDUuODQgNzcuNzQgLTQyLjUyIDcxLjMgLTI3Ljg5IDU2LjkyIE0gLTUxLjAxIDg0LjIzIEMgLTQ3LjE3IDc2LjA3IC0zOS42NyA2OS41NCAtMjguOTMgNTcuMzMgTSAtNDguMDMgODcuODYgQyAtNDEuODIgODAuNjQgLTM3LjE2IDczLjM2IC0yMi4zNSA1Ny42NCBNIC00OS41NyA4Ni4yNiBDIC00My4xNCA4MC44MiAtMzYuOTcgNzIuOTYgLTIyLjE2IDU3LjQgTSAtNDUuMjUgOTAuMjUgQyAtMzUuNTUgNzguMDUgLTIzLjk4IDYzLjQ0IC0xNy4yOCA1Ni43NyBNIC00Ny4zMSA4OC45NyBDIC0zOS43NyA4Mi4zIC0zNC40NiA3NC41OSAtMTcuNiA1Ny4xNyBNIC00Mi44MiA5MC41IEMgLTMxLjk0IDc3LjE0IC0yMS4wNyA2Ni44OSAtMTAuMTcgNTcuMjEgTSAtNDEuODIgOTAuODEgQyAtMzIuNTEgODAuMDQgLTIyLjQyIDY5LjcyIC0xMi4wMSA1Ni41MiBNIC00MC4yOSA5My4wNyBDIC0yNS4xNyA3OS44IC0xNC41OCA2Ny44NiAtNi44OSA1NS40NyBNIC0zOS4yMiA5Mi4wMiBDIC0yNi4wOSA3Ny4yNiAtMTMuMTEgNjIuODIgLTUuNzQgNTUuNDQgTSAtMzUuMDUgOTIuNzkgQyAtMjEuODQgODEuMyAtMTIuNSA3MC43MiAwLjE5IDU1LjcgTSAtMzMuNjYgOTQuNjggQyAtMjYuOTggODYuMDEgLTE4Ljg2IDc2LjQ3IC0wLjczIDU1Ljk3IE0gLTMwLjI4IDk1LjYyIEMgLTE5Ljg4IDgxLjg1IC0xMi40NyA3NC44IDQuODEgNTcuMTYgTSAtMjkuMTUgOTMuNDEgQyAtMjAuODcgODQuNTMgLTEyLjg2IDc1LjQ1IDQuMjUgNTUuNDggTSAtMjUuNzEgOTMuMzggQyAtMTYuNjggODcuNjMgLTExLjExIDgwLjggMTAuNjggNTMuOTUgTSAtMjQuMjQgOTUuOTUgQyAtMTMuMDQgODEuOTggLTAuNzMgNjkuMTIgOS41NyA1NC4zNiBNIC0yMC40NCA5NCBDIC0xMS45NyA4OC4xOCAtNC4zMiA3Ny4yNyAxNi43OCA1NC4zMyBNIC0yMC42MiA5NS4yNyBDIC0xMS45NiA4Ny4wNCAtNi4wNyA3OC4yMiAxNi4yMSA1NS4xNCBNIC0xNi4yOCA5Ny41MiBDIC0yLjAzIDgxLjU3IDcuODkgNjkuMjYgMjIuNjEgNTQuODggTSAtMTQuNDMgOTUuNSBDIC00LjY1IDg1LjM3IDUuMDcgNzQuNDQgMjMuMDQgNTIuNiBNIC0xMC41NSA5Ni42MyBDIDAuMzYgODIuMDkgMTIuMTggNjguMjQgMjYuODEgNTQuODYgTSAtMTAuODYgOTYuMjcgQyAwLjk1IDgzLjYgMTIuODQgNjguOCAyNy42MyA1My45IE0gLTQuODIgOTcuMTEgQyA3LjEyIDgzLjY0IDIxLjI4IDY1LjgyIDM0LjkxIDU0LjgzIE0gLTQuODMgOTcuMDUgQyA5Ljk2IDc5LjA3IDIzLjkyIDYyLjE1IDM0LjE2IDUzLjE5IE0gMC4zNyA5Ny4xIEMgOS42MyA4Ny41OSAxNC41MiA3OS44OSAzOC44IDU0Ljc3IE0gMC40NiA5OC4zNyBDIDkuMTYgODcuMzcgMTYuNjIgNzcuNDQgMzguOTMgNTMuNTIgTSA1LjM5IDk4Ljg4IEMgMTcuOTIgODEuOTEgMzMuOTggNjcuMTIgNDMuODQgNTMuOTkgTSA1LjU0IDk3LjM2IEMgMTcuODcgODQuMjMgMjkuOTUgNjkuMSA0My42MyA1Mi42NyBNIDguNzkgOTkuNTggQyAxNyA4OC44MiAyNy43MSA3Ny42MiA0Ny40NyA1Mi45NCBNIDkuOTkgOTguMzkgQyAxOC40NSA4OS4wMSAyNS45NiA3OC44OCA0OC4xMiA1NC44MiBNIDEzLjg4IDk2Ljk3IEMgMjIuNzYgODUuOTEgMzIuOTQgNzYuMTQgNTIuNDkgNTUuOTMgTSAxNS4yNyA5OC43NCBDIDI1LjYzIDg1Ljg1IDM3LjgyIDczLjQzIDUxLjc3IDU1LjE0IE0gMjEuOTggOTkuNjYgQyAzNC4yNyA4MS41NiA0Ny43NSA2Ny44NiA1OC45NCA1NC44OCBNIDE5Ljk3IDk4LjY3IEMgMzMuMjIgODMuODMgNDQuOTQgNjguODMgNTcuNDkgNTUuNDQgTSAyNi4zMyA5Ny42NSBDIDM2LjA0IDg2Ljk3IDQ2Ljg1IDc0LjkxIDYxLjM4IDU2LjU4IE0gMjMuOTMgOTkuODUgQyAzNy4zNyA4Ni4yOSA0OS4zIDcyLjA5IDYzLjE0IDU1LjI3IE0gMjkuMzIgMTAwLjUzIEMgNDIuMzYgODIuMzcgNTYuMDIgNjcuMzEgNjguMTUgNTUuMjEgTSAyOS41NSA5OS4zOSBDIDM5Ljg0IDg4LjQ0IDQ4LjU1IDc3LjY0IDY2LjkxIDU2LjMzIE0gMzcuOCA5OS4wMyBDIDQ2Ljk1IDg1LjQ1IDU3LjY2IDc1LjMzIDcyLjU1IDU2Ljc3IE0gMzUuMjcgOTkuMzYgQyA0OS4xNyA4Mi41MyA2My44MiA2NS4zMiA3Mi42MyA1Ni44IE0gNDAuOTUgOTguNDkgQyA1MS4xMSA5MC4xNCA1Ny44NyA3OC4zMiA3Ny41MSA1OS4xOCBNIDQxLjUxIDk4LjAzIEMgNTEuNDIgODguMDUgNjAuOTEgNzYuNDcgNzYuNTUgNTkuMjUgTSA0Ni4yMSA5OS4xMyBDIDYxLjM3IDgwLjI4IDcyLjg4IDY1LjAyIDgyLjEgNTYuOTQgTSA0Ni43NCA5OC4wNiBDIDU5LjE0IDgzLjg4IDcyLjAzIDY3LjE4IDgyIDU5LjI1IE0gNTIuNTMgOTguNzUgQyA2NC4xNyA4Ni4yNiA3MS4zMyA3My4xOCA4NS41MyA1Ny45MyBNIDUyLjg5IDk3LjEyIEMgNjIuNDEgODguNDIgNzEuNTQgNzcuMTEgODUuNDkgNjAuMDIgTSA1OS42IDk1LjU3IEMgNjguMDggODMuNTMgODMuMDcgNzAuMzggODguMzIgNjEuNjYgTSA1OC42NyA5Ni41MSBDIDY4LjQ4IDg2LjE5IDc4LjQzIDc0LjUzIDkwLjAyIDYyLjUxIE0gNjYuNDUgOTMuMzcgQyA3NS45MyA4NS42OSA4MS45MSA3NS45NyA5My41NiA2MS45OCBNIDY2LjMyIDk2LjI3IEMgNzQuNTkgODUuNDUgODMuMjUgNzQuNTggOTQuNDcgNjIuMDUgTSA3Mi4wOCA5My42IEMgNzcuNzEgODIuODUgODcuMzQgNzcuMDggOTUuNTggNjcuMTMgTSA3Mi4zMyA5NS4wOSBDIDc3Ljc3IDg4LjA1IDgzLjE3IDgwLjYgOTYuMzUgNjYuMjMgTSA3OC42MiA5MS4zIEMgODYuODggODUuOCA5NS41NCA3My4yOCA5OS4wNiA2Ny43MSBNIDc4Ljc1IDkyLjE1IEMgODQuMzIgODQuMDUgOTEuODQgNzUuNDIgOTkuMTMgNjguNzggTSA4NS45NiA5Mi44NyBDIDg5LjMzIDg2LjQ2IDg5LjkyIDgzLjIxIDk5LjExIDczLjQ0IE0gODMuOTYgOTAuNzcgQyA5MC43MiA4NC41NSA5NS43OCA3OC42IDk4LjMzIDc2LjE5IE0gODkuNzggOTAuOTUgQyA5Mi44OSA4Ny44NCA5NC41MyA4Ni45NiA5Ny4zIDgzLjYgTSA5MC4zOCA5MS4wNCBDIDkyLjI0IDg5LjE5IDkzLjgxIDg3LjM2IDk3LjU3IDgyLjYzIiBmaWxsPSJub25lIiBzdHJva2U9IiNkYWU4ZmMiIHN0cm9rZS1saW5lam9pbj0icm91bmQiIHN0cm9rZS1saW5lY2FwPSJyb3VuZCIgc3Ryb2tlLW1pdGVybGltaXQ9IjEwIiB0cmFuc2Zvcm09InJvdGF0ZSgtOTAsMjIuNSw3NSkiIHBvaW50ZXItZXZlbnRzPSJhbGwiLz48cGF0aCBkPSJNIC01NC40MiA2Ni4yNSBNIC01Mi41IDY3LjUgQyAtNTEuOTIgNTcuOTYgLTE2LjkzIDUxLjExIDIzLjQ1IDUyIE0gLTUzLjU0IDY2Ljg4IEMgLTUyLjczIDYxLjM1IC0xNy41NiA1My4wOSAyMC40NiA1MS41OCBNIDIyLjUgNTIuNSBDIDYyLjE4IDUyLjQzIDk2LjE2IDU4LjkxIDk5LjA5IDY4Ljk4IE0gMjMuMjYgNTMuNDUgQyA2My43MiA1My44NiA5Ni44NSA1OS40OCA5OC45MyA2Ny41NSBNIDk3LjUzIDY3LjI2IEMgOTcuODYgNjkuNjUgOTguNjEgNzIuODcgOTguNDkgODEuNTIgTSA5OC4xNiA2Ny4yNSBDIDk4LjExIDcyLjQ1IDk3LjkzIDc2LjU5IDk3LjI1IDgyLjgzIE0gOTcuNSA4Mi41IEMgOTcuODMgOTAuNCA2NS4zNCA5OC4wNyAyNC4zMyA5Ny4zOCBNIDk2LjE3IDgxLjU2IEMgOTcuOTIgOTAuNzIgNjUuMjggOTcuNzIgMjMuNTEgOTYuNDIgTSAyMi41IDk3LjUgQyAtMTkuNzYgOTYuMzcgLTUxLjExIDkwLjQ4IC01My4xNSA4My42NiBNIDIyLjA1IDk3LjY4IEMgLTIwLjEzIDk2LjY4IC01MS4xNSA5MC4wNiAtNTIuMzIgODEgTSAtNTEuNjUgODIuODcgQyAtNTMuODkgNzYuMjQgLTUxLjUyIDcwLjIgLTUzLjExIDY2Ljg5IE0gLTUzLjIzIDgxLjkgQyAtNTEuOTcgNzcuMzQgLTUyIDczLjgxIC01Mi41MiA2Ni43NiIgZmlsbD0ibm9uZSIgc3Ryb2tlPSIjNmM4ZWJmIiBzdHJva2UtbGluZWpvaW49InJvdW5kIiBzdHJva2UtbGluZWNhcD0icm91bmQiIHN0cm9rZS1taXRlcmxpbWl0PSIxMCIgdHJhbnNmb3JtPSJyb3RhdGUoLTkwLDIyLjUsNzUpIiBwb2ludGVyLWV2ZW50cz0iYWxsIi8+PHBhdGggZD0iTSA5NS45OSA2NS42NyBNIDk3LjUgNjcuNSBDIDk3LjE3IDc1LjI4IDY0LjUzIDgyLjggMjQuMDYgODIuNDIgTSA5OC4zOCA2Ny4zMyBDIDk2LjAyIDczLjg3IDYzLjA4IDgzLjM5IDI0LjggODQuMjIgTSAyMi41IDgyLjUgQyAtMTcuMDkgODMuOTkgLTU0LjQ3IDc3LjA1IC01MC44NSA2Ny44NCBNIDIxLjQ1IDgzLjY1IEMgLTE5LjE0IDgxLjc4IC01Mi42NSA3Ni4xMSAtNTIuNDIgNjYiIGZpbGw9Im5vbmUiIHN0cm9rZT0iIzZjOGViZiIgc3Ryb2tlLWxpbmVqb2luPSJyb3VuZCIgc3Ryb2tlLWxpbmVjYXA9InJvdW5kIiBzdHJva2UtbWl0ZXJsaW1pdD0iMTAiIHRyYW5zZm9ybT0icm90YXRlKC05MCwyMi41LDc1KSIgcG9pbnRlci1ldmVudHM9ImFsbCIvPjwvZz48L3N2Zz4=;" vertex="1" parent="1">
          <mxGeometry x="285" y="103" width="47" height="152" as="geometry" />
        </mxCell>
      </root>
    </mxGraphModel>
  </diagram>
</mxfile>
